<?xml version="1.0" encoding="UTF-8"?>
<!DOCTYPE svg PUBLIC "-//W3C//DTD SVG 1.1//EN" "http://www.w3.org/Graphics/SVG/1.1/DTD/svg11.dtd">
<svg xmlns="http://www.w3.org/2000/svg" version="1.1" width="381px" height="125px" style="shape-rendering:geometricPrecision; text-rendering:geometricPrecision; image-rendering:optimizeQuality; fill-rule:evenodd; clip-rule:evenodd" xmlns:xlink="http://www.w3.org/1999/xlink">
<g><path style="opacity:1" fill="#4a9fb4" d="M 57.5,1.5 C 56.5525,2.97789 55.2191,3.97789 53.5,4.5C 53.1583,5.33825 52.4916,5.67158 51.5,5.5C 52.8502,4.35009 52.6836,3.68342 51,3.5C 49.6974,3.9783 48.5307,4.64497 47.5,5.5C 48.2187,3.11187 49.8854,1.61187 52.5,1C 54.3869,0.220387 56.0536,0.387053 57.5,1.5 Z"/></g>
<g><path style="opacity:1" fill="#4cadac" d="M 51.5,5.5 C 50.8333,6.83333 49.8333,7.83333 48.5,8.5C 48.3605,6.66298 47.6939,6.32964 46.5,7.5C 44.9447,9.943 44.278,12.6097 44.5,15.5C 42.7475,11.3575 43.7475,8.0242 47.5,5.5C 48.5307,4.64497 49.6974,3.9783 51,3.5C 52.6836,3.68342 52.8502,4.35009 51.5,5.5 Z"/></g>
<g><path style="opacity:0.757" fill="#4493c0" d="M 57.5,1.5 C 60.6433,1.96896 62.9767,3.63563 64.5,6.5C 64.7148,8.17876 64.0481,9.17876 62.5,9.5C 60.3091,6.56687 57.3091,4.9002 53.5,4.5C 55.2191,3.97789 56.5525,2.97789 57.5,1.5 Z"/></g>
<g><path style="opacity:0.953" fill="#4c83c8" d="M 64.5,6.5 C 68.7376,10.8823 68.4043,14.8823 63.5,18.5C 61.6783,19.4286 60.3449,18.7619 59.5,16.5C 62.0922,14.9639 63.0922,12.6305 62.5,9.5C 64.0481,9.17876 64.7148,8.17876 64.5,6.5 Z"/></g>
<g><path style="opacity:0.969" fill="#34cea7" d="M 48.5,8.5 C 47.2741,10.9424 45.9408,13.2758 44.5,15.5C 44.278,12.6097 44.9447,9.943 46.5,7.5C 47.6939,6.32964 48.3605,6.66298 48.5,8.5 Z"/></g>
<g><path style="opacity:0.867" fill="#49a0ab" d="M 48.5,8.5 C 47.4249,10.8555 47.4249,13.1889 48.5,15.5C 50.1284,16.5353 51.795,16.5353 53.5,15.5C 52.8333,16.5 52.1667,17.5 51.5,18.5C 50.7326,19.172 50.0659,20.0053 49.5,21C 46.854,21.4974 44.1873,21.6641 41.5,21.5C 43.3885,20.678 45.3885,19.8447 47.5,19C 46.2899,17.9609 45.2899,16.7942 44.5,15.5C 45.9408,13.2758 47.2741,10.9424 48.5,8.5 Z"/></g>
<g><path style="opacity:0.627" fill="#4593b3" d="M 53.5,15.5 C 55.6381,14.1919 57.6381,14.5252 59.5,16.5C 60.3449,18.7619 61.6783,19.4286 63.5,18.5C 65.5,19.5 67.5,20.5 69.5,21.5C 66.7628,21.5987 64.0961,21.2653 61.5,20.5C 59.7041,19.2073 58.0375,17.7073 56.5,16C 55.552,15.5172 54.552,15.3505 53.5,15.5 Z"/></g>
<g><path style="opacity:1" fill="#10c5cb" d="M 53.5,15.5 C 54.552,15.3505 55.552,15.5172 56.5,16C 58.0375,17.7073 59.7041,19.2073 61.5,20.5C 63.4499,22.026 65.7833,23.026 68.5,23.5C 66.2573,24.4742 63.924,24.8076 61.5,24.5C 58.8333,24.5 56.1667,24.5 53.5,24.5C 54.209,23.596 55.209,23.2627 56.5,23.5C 56.5023,21.1691 55.669,19.1691 54,17.5C 53.3292,18.2524 52.4959,18.5858 51.5,18.5C 52.1667,17.5 52.8333,16.5 53.5,15.5 Z"/></g>
<g><path style="opacity:0.643" fill="#46a0a9" d="M 41.5,21.5 C 38.4701,23.4032 35.1368,24.7365 31.5,25.5C 34.3695,23.2057 37.7029,21.8723 41.5,21.5 Z"/></g>
<g><path style="opacity:1" fill="#1bd0ba" d="M 53.5,24.5 C 49.6125,24.6459 45.9458,25.3126 42.5,26.5C 38.4636,28.1881 34.4636,29.8548 30.5,31.5C 32.1233,30.2206 33.79,28.8872 35.5,27.5C 35,27.1667 34.5,26.8333 34,26.5C 31.5237,28.4871 28.6903,29.4871 25.5,29.5C 27.1475,27.6736 29.1475,26.3403 31.5,25.5C 35.1368,24.7365 38.4701,23.4032 41.5,21.5C 44.1873,21.6641 46.854,21.4974 49.5,21C 50.0659,20.0053 50.7326,19.172 51.5,18.5C 52.4959,18.5858 53.3292,18.2524 54,17.5C 55.669,19.1691 56.5023,21.1691 56.5,23.5C 55.209,23.2627 54.209,23.596 53.5,24.5 Z"/></g>
<g><path style="opacity:1" fill="#16bbd3" d="M 61.5,20.5 C 64.0961,21.2653 66.7628,21.5987 69.5,21.5C 72.4173,23.3797 75.4173,25.3797 78.5,27.5C 77.3112,28.4287 75.9778,28.762 74.5,28.5C 73.0813,27.5489 71.4147,27.2155 69.5,27.5C 69.3893,26.8826 69.056,26.3826 68.5,26C 66.1902,25.5034 63.8568,25.3367 61.5,25.5C 61.5,25.1667 61.5,24.8333 61.5,24.5C 63.924,24.8076 66.2573,24.4742 68.5,23.5C 65.7833,23.026 63.4499,22.026 61.5,20.5 Z"/></g>
<g><path style="opacity:0.376" fill="#399fb0" d="M 53.5,24.5 C 56.1667,24.5 58.8333,24.5 61.5,24.5C 61.5,24.8333 61.5,25.1667 61.5,25.5C 61.0563,26.8185 59.7229,27.8185 57.5,28.5C 57.3718,30.0898 56.7051,31.4231 55.5,32.5C 54.1667,31.1667 52.8333,29.8333 51.5,28.5C 45.9818,29.7851 40.6485,31.4517 35.5,33.5C 36.7898,32.0652 38.4565,31.0652 40.5,30.5C 40.2907,29.914 39.9574,29.414 39.5,29C 41.1193,28.7645 42.1193,27.9311 42.5,26.5C 45.9458,25.3126 49.6125,24.6459 53.5,24.5 Z"/></g>
<g><path style="opacity:1" fill="#3c9bbd" d="M 61.5,25.5 C 63.8568,25.3367 66.1902,25.5034 68.5,26C 69.056,26.3826 69.3893,26.8826 69.5,27.5C 68.2617,27.81 68.2617,28.31 69.5,29C 73.7668,29.9872 74.1002,30.8205 70.5,31.5C 66.1957,30.3725 61.8624,29.3725 57.5,28.5C 59.7229,27.8185 61.0563,26.8185 61.5,25.5 Z"/></g>
<g><path style="opacity:0.871" fill="#449fa0" d="M 25.5,29.5 C 22.1667,33.5 18.5,37.1667 14.5,40.5C 17.1667,35.8333 20.8333,32.1667 25.5,29.5 Z"/></g>
<g><path style="opacity:1" fill="#2fa9da" d="M 69.5,21.5 C 78.6429,23.8975 86.3096,28.5642 92.5,35.5C 91.6282,36.6124 91.6282,37.9458 92.5,39.5C 92.2528,40.7133 91.5862,41.38 90.5,41.5C 89.8333,40.1667 88.8333,39.1667 87.5,38.5C 83.7111,34.4412 79.3778,31.1078 74.5,28.5C 75.9778,28.762 77.3112,28.4287 78.5,27.5C 75.4173,25.3797 72.4173,23.3797 69.5,21.5 Z"/></g>
<g><path style="opacity:0.282" fill="#2f8fc5" d="M 69.5,27.5 C 71.4147,27.2155 73.0813,27.5489 74.5,28.5C 79.3778,31.1078 83.7111,34.4412 87.5,38.5C 86.5284,40.4931 85.1951,40.8264 83.5,39.5C 79.5995,36.0536 75.2661,33.3869 70.5,31.5C 74.1002,30.8205 73.7668,29.9872 69.5,29C 68.2617,28.31 68.2617,27.81 69.5,27.5 Z"/></g>
<g><path style="opacity:0.457" fill="#b0a8d1" d="M 137.5,35.5 C 133.351,34.9197 129.684,35.5864 126.5,37.5C 125.522,37.189 124.855,36.5223 124.5,35.5C 128.984,34.1889 133.317,34.1889 137.5,35.5 Z"/></g>
<g><path style="opacity:0.467" fill="#b4acd3" d="M 165.5,37.5 C 164.129,36.2132 162.295,35.5465 160,35.5C 158.167,35.8333 156.333,36.1667 154.5,36.5C 154.145,37.5223 153.478,38.189 152.5,38.5C 152.539,37.4168 152.873,36.4168 153.5,35.5C 157.783,34.5078 162.116,34.1744 166.5,34.5C 166.737,35.791 166.404,36.791 165.5,37.5 Z"/></g>
<g><path style="opacity:0.698" fill="#b5aac4" d="M 273.5,33.5 C 269.8,35.2453 265.8,36.2453 261.5,36.5C 265.126,34.5023 269.126,33.5023 273.5,33.5 Z"/></g>
<g><path style="opacity:1" fill="#f7f6f9" d="M 137.5,35.5 C 138.89,36.8993 139.89,38.5659 140.5,40.5C 140.427,42.0269 141.094,43.0269 142.5,43.5C 143.644,45.1002 144.811,46.7669 146,48.5C 148.03,44.9915 150.196,41.6581 152.5,38.5C 153.478,38.189 154.145,37.5223 154.5,36.5C 156.333,36.1667 158.167,35.8333 160,35.5C 162.295,35.5465 164.129,36.2132 165.5,37.5C 163.417,42.0004 161.084,46.3338 158.5,50.5C 156.75,51.6594 155.75,53.326 155.5,55.5C 155.672,56.4916 155.338,57.1583 154.5,57.5C 152.707,57.8836 151.707,59.0503 151.5,61C 152.812,63.807 154.479,66.307 156.5,68.5C 156.427,70.0269 157.094,71.0269 158.5,71.5C 161.084,75.6662 163.417,79.9996 165.5,84.5C 164.129,85.7868 162.295,86.4535 160,86.5C 158.167,86.1667 156.333,85.8333 154.5,85.5C 154.145,84.4777 153.478,83.811 152.5,83.5C 150.917,81.3374 149.584,79.0041 148.5,76.5C 148.716,74.3193 147.883,72.6526 146,71.5C 144.961,72.2438 144.461,73.2438 144.5,74.5C 144.34,76.153 143.674,77.4863 142.5,78.5C 140.75,79.6594 139.75,81.326 139.5,83.5C 139.573,85.0269 138.906,86.0269 137.5,86.5C 133.351,87.0803 129.684,86.4136 126.5,84.5C 126.975,82.2163 127.975,80.2163 129.5,78.5C 131.25,77.3406 132.25,75.674 132.5,73.5C 134.588,71.6644 135.921,69.3311 136.5,66.5C 141.833,62.8333 141.833,59.1667 136.5,55.5C 135.326,54.4863 134.66,53.153 134.5,51.5C 132.892,48.2003 131.225,44.8669 129.5,41.5C 129.043,40.7025 128.376,40.3691 127.5,40.5C 126.89,39.609 126.557,38.609 126.5,37.5C 129.684,35.5864 133.351,34.9197 137.5,35.5 Z"/></g>
<g><path style="opacity:1" fill="#fcfbfc" d="M 194.5,35.5 C 196.38,35.2291 197.713,35.8958 198.5,37.5C 200.167,39.8333 202.167,41.8333 204.5,43.5C 206.213,44.6354 206.88,46.302 206.5,48.5C 206.533,52.8689 206.2,57.2022 205.5,61.5C 203.833,65.1667 201.167,67.8333 197.5,69.5C 192.199,70.1773 186.866,70.6773 181.5,71C 180.529,76.0717 180.195,81.2384 180.5,86.5C 177.5,86.5 174.5,86.5 171.5,86.5C 171.5,78.8333 171.5,71.1667 171.5,63.5C 171.5,54.1667 171.5,44.8333 171.5,35.5C 179.167,35.5 186.833,35.5 194.5,35.5 Z M 195.5,53.5 C 195.5,54.8333 195.5,56.1667 195.5,57.5C 191.179,60.1247 186.513,60.958 181.5,60C 182.467,55.5986 182.8,51.0986 182.5,46.5C 186.308,46.1632 189.974,46.6632 193.5,48C 194.861,49.5843 195.528,51.4176 195.5,53.5 Z"/></g>
<g><path style="opacity:1" fill="#fdfdfd" d="M 242.5,76.5 C 242.5,79.8333 242.5,83.1667 242.5,86.5C 232.5,86.5 222.5,86.5 212.5,86.5C 212.5,69.5 212.5,52.5 212.5,35.5C 215.5,35.5 218.5,35.5 221.5,35.5C 221.5,49.1667 221.5,62.8333 221.5,76.5C 228.5,76.5 235.5,76.5 242.5,76.5 Z"/></g>
<g><path style="opacity:1" fill="#f9f8fb" d="M 273.5,33.5 C 274.492,33.3284 275.158,33.6618 275.5,34.5C 277.68,35.9004 280.68,36.9004 284.5,37.5C 286.434,38.1103 288.101,39.1103 289.5,40.5C 289.738,42.4783 291.071,44.1449 293.5,45.5C 294.326,48.4848 295.659,51.1515 297.5,53.5C 297.872,60.3007 297.206,66.9674 295.5,73.5C 294.89,75.4341 293.89,77.1007 292.5,78.5C 292.565,78.0618 292.399,77.7284 292,77.5C 290.833,78.6667 289.667,79.8333 288.5,81C 288.728,81.3988 289.062,81.5654 289.5,81.5C 287.664,83.588 285.331,84.9213 282.5,85.5C 273.934,87.2771 265.6,86.6104 257.5,83.5C 255.5,80.8333 253.167,78.5 250.5,76.5C 248.75,75.3406 247.75,73.674 247.5,71.5C 247.464,68.8719 246.797,67.2052 245.5,66.5C 244.662,66.1583 244.328,65.4916 244.5,64.5C 245.491,59.9496 246.491,55.2829 247.5,50.5C 247.328,49.5084 247.662,48.8417 248.5,48.5C 251.138,45.5256 253.805,42.5256 256.5,39.5C 257.659,37.7497 259.326,36.7497 261.5,36.5C 265.8,36.2453 269.8,35.2453 273.5,33.5 Z M 286.5,56.5 C 287.021,61.8462 286.021,66.8462 283.5,71.5C 282.833,71.5 282.5,71.8333 282.5,72.5C 276.783,75.5386 270.783,76.2053 264.5,74.5C 262.167,72.8333 260.167,70.8333 258.5,68.5C 256.712,62.1484 257.379,56.1484 260.5,50.5C 262.875,49.0983 265.209,47.765 267.5,46.5C 276.1,45.3018 282.433,48.6351 286.5,56.5 Z"/></g>
<g><path style="opacity:0.027" fill="#aba9bd" d="M 275.5,34.5 C 279.044,34.1324 282.044,35.1324 284.5,37.5C 280.68,36.9004 277.68,35.9004 275.5,34.5 Z"/></g>
<g><path style="opacity:1" fill="#fefdfd" d="M 332.5,35.5 C 332.5,38.5 332.5,41.5 332.5,44.5C 325.646,44.176 318.979,44.5093 312.5,45.5C 311.18,48.8987 311.18,52.3987 312.5,56C 317.489,56.4993 322.489,56.6659 327.5,56.5C 327.5,59.5 327.5,62.5 327.5,65.5C 322.305,65.1795 317.305,65.5128 312.5,66.5C 312.5,69.8333 312.5,73.1667 312.5,76.5C 318.979,77.4907 325.646,77.824 332.5,77.5C 332.5,80.5 332.5,83.5 332.5,86.5C 322.5,86.5 312.5,86.5 302.5,86.5C 302.5,69.5 302.5,52.5 302.5,35.5C 312.5,35.5 322.5,35.5 332.5,35.5 Z"/></g>
<g><path style="opacity:0.999" fill="#fafafb" d="M 363.5,36.5 C 371.917,41.902 374.751,49.5687 372,59.5C 371.208,61.5873 370.041,63.4207 368.5,65C 368.728,65.3988 369.062,65.5654 369.5,65.5C 368.71,66.4013 367.71,67.0679 366.5,67.5C 363.949,67.6682 363.282,68.6682 364.5,70.5C 367.414,74.658 370.081,78.9914 372.5,83.5C 372.414,84.4959 372.748,85.3292 373.5,86C 368.609,86.9029 363.942,86.4029 359.5,84.5C 356.503,79.8415 353.503,75.1748 350.5,70.5C 350.631,69.6236 350.298,68.9569 349.5,68.5C 348.504,74.4632 348.171,80.4632 348.5,86.5C 345.167,86.5 341.833,86.5 338.5,86.5C 338.5,69.5 338.5,52.5 338.5,35.5C 346.875,35.2596 355.208,35.5929 363.5,36.5 Z M 361.5,56.5 C 360.5,56.8333 359.833,57.5 359.5,58.5C 356.093,58.8574 352.926,59.1907 350,59.5C 349.501,55.1794 349.334,50.8461 349.5,46.5C 358.16,44.5044 362.16,47.8377 361.5,56.5 Z"/></g>
<g><path style="opacity:0.02" fill="#a8a5ba" d="M 198.5,37.5 C 201.5,38.5 203.5,40.5 204.5,43.5C 202.167,41.8333 200.167,39.8333 198.5,37.5 Z"/></g>
<g><path style="opacity:1" fill="#14e5a7" d="M 30.5,31.5 C 25.8663,35.1321 21.533,39.1321 17.5,43.5C 17.6309,42.6236 17.2975,41.9569 16.5,41.5C 15.7348,42.6119 14.7348,43.2786 13.5,43.5C 14.1098,42.609 14.4431,41.609 14.5,40.5C 18.5,37.1667 22.1667,33.5 25.5,29.5C 28.6903,29.4871 31.5237,28.4871 34,26.5C 34.5,26.8333 35,27.1667 35.5,27.5C 33.79,28.8872 32.1233,30.2206 30.5,31.5 Z"/></g>
<g><path style="opacity:0.561" fill="#b7b5cb" d="M 363.5,36.5 C 372.774,40.4351 376.274,47.4351 374,57.5C 373.246,60.6844 371.746,63.3511 369.5,65.5C 369.062,65.5654 368.728,65.3988 368.5,65C 370.041,63.4207 371.208,61.5873 372,59.5C 374.751,49.5687 371.917,41.902 363.5,36.5 Z"/></g>
<g><path style="opacity:0.671" fill="#45999e" d="M 14.5,40.5 C 14.4431,41.609 14.1098,42.609 13.5,43.5C 13.1667,43.5 12.8333,43.5 12.5,43.5C 12.427,41.9731 13.0937,40.9731 14.5,40.5 Z"/></g>
<g><path style="opacity:0.204" fill="#9c8bb0" d="M 140.5,40.5 C 141.906,40.9731 142.573,41.9731 142.5,43.5C 141.094,43.0269 140.427,42.0269 140.5,40.5 Z"/></g>
<g><path style="opacity:0.349" fill="#a39abe" d="M 289.5,40.5 C 291.587,41.5846 292.92,43.2512 293.5,45.5C 291.071,44.1449 289.738,42.4783 289.5,40.5 Z"/></g>
<g><path style="opacity:0.031" fill="#aea5c7" d="M 127.5,40.5 C 128.376,40.3691 129.043,40.7025 129.5,41.5C 131.225,44.8669 132.892,48.2003 134.5,51.5C 131.432,48.378 129.098,44.7114 127.5,40.5 Z"/></g>
<g><path style="opacity:0.443" fill="#bcb9cf" d="M 256.5,39.5 C 253.805,42.5256 251.138,45.5256 248.5,48.5C 249.768,44.2329 252.435,41.2329 256.5,39.5 Z"/></g>
<g><path style="opacity:0.828" fill="#dedbef" d="M 332.5,35.5 C 332.833,35.5 333.167,35.5 333.5,35.5C 334.59,38.9855 334.59,42.3188 333.5,45.5C 326.5,45.5 319.5,45.5 312.5,45.5C 318.979,44.5093 325.646,44.176 332.5,44.5C 332.5,41.5 332.5,38.5 332.5,35.5 Z"/></g>
<g><path style="opacity:0.122" fill="#8b85ae" d="M 312.5,45.5 C 319.5,45.5 326.5,45.5 333.5,45.5C 326.605,45.8498 319.938,46.8498 313.5,48.5C 312.596,47.791 312.263,46.791 312.5,45.5 Z"/></g>
<g><path style="opacity:0.722" fill="#b1adc4" d="M 195.5,53.5 C 195.528,51.4176 194.861,49.5843 193.5,48C 189.974,46.6632 186.308,46.1632 182.5,46.5C 182.8,51.0986 182.467,55.5986 181.5,60C 186.513,60.958 191.179,60.1247 195.5,57.5C 194.878,59.335 193.544,60.5017 191.5,61C 187.848,61.4986 184.182,61.6653 180.5,61.5C 180.5,56.1667 180.5,50.8333 180.5,45.5C 184.846,45.3343 189.179,45.501 193.5,46C 196.17,48.1828 196.837,50.6828 195.5,53.5 Z"/></g>
<g><path style="opacity:0.537" fill="#b3adcb" d="M 293.5,45.5 C 295.873,47.5792 297.206,50.2459 297.5,53.5C 295.659,51.1515 294.326,48.4848 293.5,45.5 Z"/></g>
<g><path style="opacity:0.627" fill="#43b0a0" d="M 12.5,43.5 C 12.47,46.8515 11.1367,49.5182 8.5,51.5C 8.79362,48.2459 10.127,45.5792 12.5,43.5 Z"/></g>
<g><path style="opacity:0.012" fill="#5ea4af" d="M 45.5,53.5 C 45.1667,53.5 44.8333,53.5 44.5,53.5C 40.8955,51.7392 37.3955,49.7392 34,47.5C 32.9701,47.8361 32.4701,48.5028 32.5,49.5C 29.8374,47.8893 29.3374,45.8893 31,43.5C 35.9865,46.7325 40.8198,50.0658 45.5,53.5 Z"/></g>
<g><path style="opacity:1" fill="#3daba0" d="M 42.5,26.5 C 42.1193,27.9311 41.1193,28.7645 39.5,29C 39.9574,29.414 40.2907,29.914 40.5,30.5C 38.4565,31.0652 36.7898,32.0652 35.5,33.5C 26.6477,39.0249 20.3143,46.6916 16.5,56.5C 17.7074,53.1475 17.7074,49.8142 16.5,46.5C 17.1098,45.609 17.4431,44.609 17.5,43.5C 21.533,39.1321 25.8663,35.1321 30.5,31.5C 34.4636,29.8548 38.4636,28.1881 42.5,26.5 Z"/></g>
<g><path style="opacity:0.494" fill="#b4adc6" d="M 286.5,56.5 C 282.433,48.6351 276.1,45.3018 267.5,46.5C 274.158,43.6709 279.992,45.3376 285,51.5C 286.009,53.0249 286.509,54.6916 286.5,56.5 Z"/></g>
<g><path style="opacity:0.601" fill="#cac6df" d="M 242.5,76.5 C 235.5,76.5 228.5,76.5 221.5,76.5C 221.5,62.8333 221.5,49.1667 221.5,35.5C 218.5,35.5 215.5,35.5 212.5,35.5C 212.5,52.5 212.5,69.5 212.5,86.5C 212.167,86.5 211.833,86.5 211.5,86.5C 211.5,69.1667 211.5,51.8333 211.5,34.5C 215.167,34.5 218.833,34.5 222.5,34.5C 222.975,48.1361 222.975,61.8028 222.5,75.5C 229.354,75.176 236.021,75.5093 242.5,76.5 Z"/></g>
<g><path style="opacity:0.918" fill="#558bb7" d="M 69.5,57.5 C 68.8333,57.5 68.5,57.8333 68.5,58.5C 66.9731,58.573 65.9731,57.9063 65.5,56.5C 62.7428,55.4878 60.0761,54.4878 57.5,53.5C 57.5,52.8333 57.5,52.1667 57.5,51.5C 57.5,50.5 57.5,49.5 57.5,48.5C 57.4226,47.2502 56.756,46.4169 55.5,46C 56.7596,44.1862 56.7596,42.3529 55.5,40.5C 54.7124,41.7701 53.7124,42.7701 52.5,43.5C 52.886,41.0634 54.0527,39.0634 56,37.5C 57.4835,42.6342 59.6502,47.4675 62.5,52C 63.8333,52.6667 65.1667,52.6667 66.5,52C 69.5753,50.3797 72.742,48.8797 76,47.5C 76.5,47.8333 77,48.1667 77.5,48.5C 74.811,51.5198 72.1444,54.5198 69.5,57.5 Z"/></g>
<g><path style="opacity:0.149" fill="#aa9abb" d="M 158.5,50.5 C 158.25,52.674 157.25,54.3406 155.5,55.5C 155.75,53.326 156.75,51.6594 158.5,50.5 Z"/></g>
<g><path style="opacity:0.442" fill="#b6b0d1" d="M 363.5,36.5 C 355.208,35.5929 346.875,35.2596 338.5,35.5C 338.5,52.5 338.5,69.5 338.5,86.5C 341.833,86.5 345.167,86.5 348.5,86.5C 345.977,87.2537 343.311,87.9204 340.5,88.5C 339.833,88.1667 339.167,87.8333 338.5,87.5C 337.5,69.8459 337.167,52.1792 337.5,34.5C 342.952,34.0527 348.285,33.7193 353.5,33.5C 357.185,33.7585 360.518,34.7585 363.5,36.5 Z"/></g>
<g><path style="opacity:0.529" fill="#439895" d="M 8.5,51.5 C 7.62614,54.7893 6.95947,58.1226 6.5,61.5C 6.16667,61.5 5.83333,61.5 5.5,61.5C 5.32003,57.7144 6.32003,54.381 8.5,51.5 Z"/></g>
<g><path style="opacity:1" fill="#3bc4a1" d="M 16.5,46.5 C 17.7074,49.8142 17.7074,53.1475 16.5,56.5C 16.6716,57.4916 16.3382,58.1583 15.5,58.5C 12.9335,66.1825 12.9335,73.8491 15.5,81.5C 16.3382,81.8417 16.6716,82.5084 16.5,83.5C 16.8432,85.4832 16.1765,86.8166 14.5,87.5C 12.3093,85.0383 10.9759,82.0383 10.5,78.5C 11.2216,78.9175 11.7216,79.5842 12,80.5C 10.9965,71.6826 11.8299,63.0159 14.5,54.5C 14.0431,53.7025 13.3764,53.3691 12.5,53.5C 13.8382,51.1317 15.1715,48.7984 16.5,46.5 Z"/></g>
<g><path style="opacity:0.024" fill="#509fa4" d="M 57.5,48.5 C 55.0155,49.2601 55.0155,50.2601 57.5,51.5C 57.5,52.1667 57.5,52.8333 57.5,53.5C 56.8826,53.3893 56.3826,53.056 56,52.5C 53.6215,53.9669 51.1215,54.9669 48.5,55.5C 46.9731,55.573 45.9731,54.9063 45.5,53.5C 49.2296,52.0322 51.563,49.3655 52.5,45.5C 52.5,44.8333 52.5,44.1667 52.5,43.5C 53.7124,42.7701 54.7124,41.7701 55.5,40.5C 56.7596,42.3529 56.7596,44.1862 55.5,46C 56.756,46.4169 57.4226,47.2502 57.5,48.5 Z"/></g>
<g><path style="opacity:1" fill="#29d5b4" d="M 52.5,45.5 C 53.1174,45.3893 53.6174,45.056 54,44.5C 54.6667,47.1667 54.6667,49.8333 54,52.5C 52.8173,53.731 51.6507,53.731 50.5,52.5C 51.9459,50.3821 52.6126,48.0488 52.5,45.5 Z"/></g>
<g><path style="opacity:1" fill="#22aed3" d="M 65.5,56.5 C 65.5858,55.5041 65.2524,54.6708 64.5,54C 66.5342,52.7947 68.5342,52.628 70.5,53.5C 69.5791,55.756 67.9124,56.756 65.5,56.5 Z"/></g>
<g><path style="opacity:0.634" fill="#cbc8da" d="M 194.5,35.5 C 186.833,35.5 179.167,35.5 171.5,35.5C 171.5,44.8333 171.5,54.1667 171.5,63.5C 170.833,66.1667 170.167,68.8333 169.5,71.5C 169.272,59.1408 169.605,46.8074 170.5,34.5C 178.684,34.1743 186.684,34.5076 194.5,35.5 Z"/></g>
<g><path style="opacity:0.6" fill="#c4bfd9" d="M 206.5,48.5 C 208.67,52.8976 208.337,57.2309 205.5,61.5C 206.2,57.2022 206.533,52.8689 206.5,48.5 Z"/></g>
<g><path style="opacity:1" fill="#1cd1ba" d="M 44.5,53.5 C 45.3543,55.035 45.3543,56.3684 44.5,57.5C 43.609,56.8902 42.609,56.5569 41.5,56.5C 38.8263,53.748 35.8263,51.4147 32.5,49.5C 32.4701,48.5028 32.9701,47.8361 34,47.5C 37.3955,49.7392 40.8955,51.7392 44.5,53.5 Z"/></g>
<g><path style="opacity:0.62" fill="#aaa4c6" d="M 247.5,50.5 C 246.491,55.2829 245.491,59.9496 244.5,64.5C 244.044,59.3925 245.044,54.7259 247.5,50.5 Z"/></g>
<g><path style="opacity:0.545" fill="#c0bbd0" d="M 260.5,50.5 C 257.379,56.1484 256.712,62.1484 258.5,68.5C 256.106,66.6682 255.106,64.1682 255.5,61C 255.449,56.6045 257.116,53.1045 260.5,50.5 Z"/></g>
<g><path style="opacity:0.471" fill="#bebbd2" d="M 361.5,56.5 C 362.16,47.8377 358.16,44.5044 349.5,46.5C 349.334,50.8461 349.501,55.1794 350,59.5C 352.926,59.1907 356.093,58.8574 359.5,58.5C 359.389,59.1174 359.056,59.6174 358.5,60C 354.848,60.4986 351.182,60.6653 347.5,60.5C 347.5,55.5 347.5,50.5 347.5,45.5C 351.514,45.3345 355.514,45.5012 359.5,46C 363.3,49.1535 363.967,52.6535 361.5,56.5 Z"/></g>
<g><path style="opacity:1" fill="#45a9b5" d="M 32.5,49.5 C 35.8263,51.4147 38.8263,53.748 41.5,56.5C 40.1667,56.8333 40.1667,57.1667 41.5,57.5C 41.5,58.1667 41.8333,58.5 42.5,58.5C 42.3284,59.4916 42.6618,60.1583 43.5,60.5C 44.242,62.9798 45.242,65.3131 46.5,67.5C 46.5,68.8333 45.8333,69.5 44.5,69.5C 43.4415,68.3998 42.6082,67.0664 42,65.5C 41.3292,64.7476 40.4959,64.4142 39.5,64.5C 39.5,63.8333 39.5,63.1667 39.5,62.5C 37.421,58.0074 35.0877,53.674 32.5,49.5 Z"/></g>
<g><path style="opacity:1" fill="#0ec2d1" d="M 44.5,53.5 C 44.8333,53.5 45.1667,53.5 45.5,53.5C 45.9731,54.9063 46.9731,55.573 48.5,55.5C 49.8001,56.8267 51.1335,58.16 52.5,59.5C 51.7542,60.7362 51.4208,62.0695 51.5,63.5C 48.2685,62.6055 45.9351,60.6055 44.5,57.5C 45.3543,56.3684 45.3543,55.035 44.5,53.5 Z"/></g>
<g><path style="opacity:1" fill="#259dec" d="M 92.5,35.5 C 106.213,51.6174 109.38,69.6174 102,89.5C 100.974,92.2387 99.4741,94.572 97.5,96.5C 96.8999,95.0998 95.8999,94.0998 94.5,93.5C 101.78,78.7019 102.28,63.7019 96,48.5C 94.6177,45.6945 92.7844,43.3612 90.5,41.5C 91.5862,41.38 92.2528,40.7133 92.5,39.5C 91.6282,37.9458 91.6282,36.6124 92.5,35.5 Z"/></g>
<g><path style="opacity:0.569" fill="#b7b4cc" d="M 136.5,55.5 C 141.833,59.1667 141.833,62.8333 136.5,66.5C 136.84,64.321 137.84,62.4877 139.5,61C 137.84,59.5123 136.84,57.679 136.5,55.5 Z"/></g>
<g><path style="opacity:0.6" fill="#b9b4d0" d="M 154.5,57.5 C 154.489,59.0174 153.823,60.1841 152.5,61C 154.495,63.1572 155.828,65.6572 156.5,68.5C 154.479,66.307 152.812,63.807 151.5,61C 151.707,59.0503 152.707,57.8836 154.5,57.5 Z"/></g>
<g><path style="opacity:1" fill="#40abcf" d="M 48.5,55.5 C 51.7598,56.7738 54.7598,58.4405 57.5,60.5C 54.7059,61.5846 54.0392,63.4179 55.5,66C 53.5116,66.1805 51.5116,66.0138 49.5,65.5C 47.5,63.8333 45.5,62.1667 43.5,60.5C 43.6716,59.5084 43.3382,58.8417 42.5,58.5C 41.8333,58.5 41.5,58.1667 41.5,57.5C 41.5,57.1667 41.5,56.8333 41.5,56.5C 42.609,56.5569 43.609,56.8902 44.5,57.5C 45.9351,60.6055 48.2685,62.6055 51.5,63.5C 51.4208,62.0695 51.7542,60.7362 52.5,59.5C 51.1335,58.16 49.8001,56.8267 48.5,55.5 Z"/></g>
<g><path style="opacity:1" fill="#529cad" d="M 69.5,57.5 C 71.8835,59.2467 73.5502,61.58 74.5,64.5C 77.0164,65.3299 79.3498,66.3299 81.5,67.5C 81.1788,69.0481 80.1788,69.7148 78.5,69.5C 78.5858,68.5041 78.2524,67.6708 77.5,67C 73.8858,64.1665 72.2191,64.9999 72.5,69.5C 74.1667,69.5 75.8333,69.5 77.5,69.5C 77.7373,70.791 77.404,71.791 76.5,72.5C 75.3218,71.0014 73.6551,70.0014 71.5,69.5C 70.6167,65.7237 69.6167,62.057 68.5,58.5C 69.1667,58.5 69.5,58.1667 69.5,57.5 Z"/></g>
<g><path style="opacity:0.247" fill="#ada8c0" d="M 297.5,53.5 C 298.234,54.8775 298.901,56.3775 299.5,58C 298.707,61.4106 298.207,64.9106 298,68.5C 297.626,70.4913 296.793,72.158 295.5,73.5C 297.206,66.9674 297.872,60.3007 297.5,53.5 Z"/></g>
<g><path style="opacity:0.708" fill="#d1cde6" d="M 312.5,45.5 C 312.263,46.791 312.596,47.791 313.5,48.5C 313.5,50.8333 313.5,53.1667 313.5,55.5C 318.5,55.5 323.5,55.5 328.5,55.5C 328.5,59.1667 328.5,62.8333 328.5,66.5C 323.77,66.2834 319.103,66.6167 314.5,67.5C 314.158,66.6618 313.492,66.3284 312.5,66.5C 317.305,65.5128 322.305,65.1795 327.5,65.5C 327.5,62.5 327.5,59.5 327.5,56.5C 322.489,56.6659 317.489,56.4993 312.5,56C 311.18,52.3987 311.18,48.8987 312.5,45.5 Z"/></g>
<g><path style="opacity:0.145" fill="#5888b4" d="M 39.5,62.5 C 39.5,63.1667 39.5,63.8333 39.5,64.5C 38.4341,70.1736 39.4341,75.5069 42.5,80.5C 41.8333,80.5 41.5,80.8333 41.5,81.5C 38.9448,79.9241 36.9448,77.7575 35.5,75C 32.6907,73.9066 30.024,72.7399 27.5,71.5C 30.8067,72.0508 34.1401,72.3841 37.5,72.5C 37.5,71.1667 37.5,69.8333 37.5,68.5C 35.8333,67.1667 34.1667,67.1667 32.5,68.5C 30.7411,68.9539 28.7411,68.9539 26.5,68.5C 26.5,69.5 26.5,70.5 26.5,71.5C 24.0272,71.3957 23.3606,70.3957 24.5,68.5C 29.1916,65.743 34.1916,63.743 39.5,62.5 Z"/></g>
<g><path style="opacity:0.773" fill="#4491bf" d="M 57.5,60.5 C 60.1092,61.4431 62.1092,63.1097 63.5,65.5C 62.1266,65.3433 60.7932,65.51 59.5,66C 57.3409,70.6516 53.6743,73.1516 48.5,73.5C 50.3797,74.7143 50.7131,76.0476 49.5,77.5C 47.336,75.178 45.6693,72.5113 44.5,69.5C 45.8333,69.5 46.5,68.8333 46.5,67.5C 47.7899,68.0577 48.6232,69.0577 49,70.5C 49.4935,68.8659 49.6602,67.1992 49.5,65.5C 51.5116,66.0138 53.5116,66.1805 55.5,66C 54.0392,63.4179 54.7059,61.5846 57.5,60.5 Z"/></g>
<g><path style="opacity:0.337" fill="#219b82" d="M 12.5,53.5 C 13.3764,53.3691 14.0431,53.7025 14.5,54.5C 11.8299,63.0159 10.9965,71.6826 12,80.5C 11.7216,79.5842 11.2216,78.9175 10.5,78.5C 10.0069,69.9589 10.6736,61.6255 12.5,53.5 Z"/></g>
<g><path style="opacity:0.122" fill="#4d8f9b" d="M 15.5,58.5 C 15.2135,66.1198 15.2135,73.7864 15.5,81.5C 12.9335,73.8491 12.9335,66.1825 15.5,58.5 Z"/></g>
<g><path style="opacity:0.569" fill="#aeaac5" d="M 286.5,56.5 C 287.641,59.6399 287.808,62.9733 287,66.5C 286.303,68.5844 285.136,70.2511 283.5,71.5C 286.021,66.8462 287.021,61.8462 286.5,56.5 Z"/></g>
<g><path style="opacity:1" fill="#5ecbad" d="M 5.5,61.5 C 5.83333,61.5 6.16667,61.5 6.5,61.5C 6.5,65.8333 6.5,70.1667 6.5,74.5C 5.83333,74.5 5.5,74.1667 5.5,73.5C 4.20916,69.3989 4.20916,65.3989 5.5,61.5 Z"/></g>
<g><path style="opacity:1" fill="#24c9bc" d="M 78.5,69.5 C 78.1667,69.5 77.8333,69.5 77.5,69.5C 75.8333,69.5 74.1667,69.5 72.5,69.5C 72.2191,64.9999 73.8858,64.1665 77.5,67C 78.2524,67.6708 78.5858,68.5041 78.5,69.5 Z"/></g>
<g><path style="opacity:0.078" fill="#9f9cc0" d="M 247.5,71.5 C 246.069,70.2196 245.402,68.5529 245.5,66.5C 246.797,67.2052 247.464,68.8719 247.5,71.5 Z"/></g>
<g><path style="opacity:0.141" fill="#8f8ca8" d="M 366.5,67.5 C 365.833,68.5 365.167,69.5 364.5,70.5C 363.282,68.6682 363.949,67.6682 366.5,67.5 Z"/></g>
<g><path style="opacity:0.565" fill="#567db2" d="M 81.5,67.5 C 84.1834,67.2266 85.6834,68.2266 86,70.5C 81.935,72.1153 78.1017,74.1153 74.5,76.5C 74.5,75.1667 74.5,73.8333 74.5,72.5C 75.1667,72.5 75.8333,72.5 76.5,72.5C 77.404,71.791 77.7373,70.791 77.5,69.5C 77.8333,69.5 78.1667,69.5 78.5,69.5C 80.1788,69.7148 81.1788,69.0481 81.5,67.5 Z"/></g>
<g><path style="opacity:0.18" fill="#9789ad" d="M 156.5,68.5 C 157.906,68.9731 158.573,69.9731 158.5,71.5C 157.094,71.0269 156.427,70.0269 156.5,68.5 Z"/></g>
<g><path style="opacity:1" fill="#2cb5c4" d="M 32.5,68.5 C 34.1667,68.5 35.8333,68.5 37.5,68.5C 37.5,69.8333 37.5,71.1667 37.5,72.5C 34.1401,72.3841 30.8067,72.0508 27.5,71.5C 27.1667,71.5 26.8333,71.5 26.5,71.5C 26.5,70.5 26.5,69.5 26.5,68.5C 28.7411,68.9539 30.7411,68.9539 32.5,68.5 Z"/></g>
<g><path style="opacity:0.733" fill="#bdb4d4" d="M 136.5,66.5 C 135.921,69.3311 134.588,71.6644 132.5,73.5C 133.079,70.6689 134.412,68.3356 136.5,66.5 Z"/></g>
<g><path style="opacity:1" fill="#09d0c2" d="M 60.5,67.5 C 61.209,66.596 62.209,66.2627 63.5,66.5C 64.1721,69.6437 65.1721,72.6437 66.5,75.5C 67.2232,79.3896 65.8898,82.0563 62.5,83.5C 61.5084,83.6716 60.8417,83.3382 60.5,82.5C 61.8086,80.4294 62.4752,77.9294 62.5,75C 62.4752,72.0706 61.8086,69.5706 60.5,67.5 Z"/></g>
<g><path style="opacity:0.031" fill="#ada9be" d="M 148.5,76.5 C 147.21,75.9423 146.377,74.9423 146,73.5C 145.617,74.056 145.117,74.3893 144.5,74.5C 144.461,73.2438 144.961,72.2438 146,71.5C 147.883,72.6526 148.716,74.3193 148.5,76.5 Z"/></g>
<g><path style="opacity:0.541" fill="#3aa7b2" d="M 63.5,65.5 C 65.5595,68.2402 67.2262,71.2402 68.5,74.5C 68.5569,75.609 68.8902,76.609 69.5,77.5C 68.7784,77.9175 68.2784,78.5842 68,79.5C 67.79,77.9419 67.29,76.6085 66.5,75.5C 65.1721,72.6437 64.1721,69.6437 63.5,66.5C 62.209,66.2627 61.209,66.596 60.5,67.5C 59.0824,69.1867 57.7491,71.02 56.5,73C 54.9419,73.21 53.6085,73.71 52.5,74.5C 51.3143,75.7054 51.3143,77.0387 52.5,78.5C 51.209,78.7373 50.209,78.404 49.5,77.5C 50.7131,76.0476 50.3797,74.7143 48.5,73.5C 53.6743,73.1516 57.3409,70.6516 59.5,66C 60.7932,65.51 62.1266,65.3433 63.5,65.5 Z"/></g>
<g><path style="opacity:0.09" fill="#8988ae" d="M 350.5,70.5 C 349.833,75.8333 349.167,81.1667 348.5,86.5C 348.171,80.4632 348.504,74.4632 349.5,68.5C 350.298,68.9569 350.631,69.6236 350.5,70.5 Z"/></g>
<g><path style="opacity:0.482" fill="#aca3c7" d="M 132.5,73.5 C 132.25,75.674 131.25,77.3406 129.5,78.5C 129.75,76.326 130.75,74.6594 132.5,73.5 Z"/></g>
<g><path style="opacity:1" fill="#0ceaa4" d="M 52.5,74.5 C 55.2776,74.0217 57.2776,75.0217 58.5,77.5C 57.3112,78.4287 55.9778,78.762 54.5,78.5C 53.8333,78.5 53.1667,78.5 52.5,78.5C 51.3143,77.0387 51.3143,75.7054 52.5,74.5 Z"/></g>
<g><path style="opacity:0.29" fill="#5c90ae" d="M 74.5,72.5 C 74.5,73.8333 74.5,75.1667 74.5,76.5C 73.5266,76.9867 72.5266,77.4867 71.5,78C 72.719,80.2782 74.0523,82.4449 75.5,84.5C 75.1667,84.5 74.8333,84.5 74.5,84.5C 72.9263,83.0158 71.593,81.3492 70.5,79.5C 70.6716,78.5084 70.3382,77.8417 69.5,77.5C 68.8902,76.609 68.5569,75.609 68.5,74.5C 69.8149,73.5244 71.1482,72.5244 72.5,71.5C 73.1835,71.8627 73.8501,72.1961 74.5,72.5 Z"/></g>
<g><path style="opacity:0.11" fill="#928fac" d="M 312.5,66.5 C 313.492,66.3284 314.158,66.6618 314.5,67.5C 313.527,69.9479 313.194,72.6146 313.5,75.5C 319.833,75.5 326.167,75.5 332.5,75.5C 326.021,76.4907 319.354,76.824 312.5,76.5C 312.5,73.1667 312.5,69.8333 312.5,66.5 Z"/></g>
<g><path style="opacity:0.718" fill="#bcb8d0" d="M 282.5,72.5 C 279.531,75.4811 275.864,77.1477 271.5,77.5C 269.528,76.8433 267.695,76.8433 266,77.5C 265.487,76.4734 264.987,75.4734 264.5,74.5C 270.783,76.2053 276.783,75.5386 282.5,72.5 Z"/></g>
<g><path style="opacity:0.024" fill="#bbb9ca" d="M 250.5,76.5 C 253.167,78.5 255.5,80.8333 257.5,83.5C 254.167,82.1667 251.833,79.8333 250.5,76.5 Z"/></g>
<g><path style="opacity:1" fill="#0adbb7" d="M 60.5,67.5 C 61.8086,69.5706 62.4752,72.0706 62.5,75C 62.4752,77.9294 61.8086,80.4294 60.5,82.5C 58.7701,80.8786 56.7701,79.5452 54.5,78.5C 55.9778,78.762 57.3112,78.4287 58.5,77.5C 57.2776,75.0217 55.2776,74.0217 52.5,74.5C 53.6085,73.71 54.9419,73.21 56.5,73C 57.7491,71.02 59.0824,69.1867 60.5,67.5 Z"/></g>
<g><path style="opacity:0.024" fill="#aba9bd" d="M 142.5,78.5 C 142.25,80.674 141.25,82.3406 139.5,83.5C 139.75,81.326 140.75,79.6594 142.5,78.5 Z"/></g>
<g><path style="opacity:0.024" fill="#adabb7" d="M 292.5,78.5 C 291.833,79.8333 290.833,80.8333 289.5,81.5C 289.062,81.5654 288.728,81.3988 288.5,81C 289.667,79.8333 290.833,78.6667 292,77.5C 292.399,77.7284 292.565,78.0618 292.5,78.5 Z"/></g>
<g><path style="opacity:1" fill="#45b5b0" d="M 52.5,78.5 C 53.1667,78.5 53.8333,78.5 54.5,78.5C 56.7701,79.5452 58.7701,80.8786 60.5,82.5C 59.8333,82.5 59.1667,82.5 58.5,82.5C 56.1475,81.6597 54.1475,80.3264 52.5,78.5 Z"/></g>
<g><path style="opacity:1" fill="#0cc3d0" d="M 66.5,75.5 C 67.29,76.6085 67.79,77.9419 68,79.5C 68.2784,78.5842 68.7784,77.9175 69.5,77.5C 70.3382,77.8417 70.6716,78.5084 70.5,79.5C 70.5,82.1667 70.5,84.8333 70.5,87.5C 69.5,87.5 68.5,87.5 67.5,87.5C 66.0158,85.9263 64.3492,84.593 62.5,83.5C 65.8898,82.0563 67.2232,79.3896 66.5,75.5 Z"/></g>
<g><path style="opacity:0.173" fill="#4f9e99" d="M 5.5,73.5 C 5.5,74.1667 5.83333,74.5 6.5,74.5C 6.91957,80.8448 8.58623,86.8448 11.5,92.5C 12.1098,93.391 12.4431,94.391 12.5,95.5C 8.09942,89.653 5.43276,82.9863 4.5,75.5C 4.54272,74.5836 4.87605,73.9169 5.5,73.5 Z"/></g>
<g><path style="opacity:1" fill="#15ef9a" d="M 17.5,43.5 C 17.4431,44.609 17.1098,45.609 16.5,46.5C 15.1715,48.7984 13.8382,51.1317 12.5,53.5C 10.6736,61.6255 10.0069,69.9589 10.5,78.5C 10.9759,82.0383 12.3093,85.0383 14.5,87.5C 14.5,88.5 14.5,89.5 14.5,90.5C 15.4339,92.2385 15.4339,93.9052 14.5,95.5C 13.8589,94.0065 12.8589,93.0065 11.5,92.5C 8.58623,86.8448 6.91957,80.8448 6.5,74.5C 6.5,70.1667 6.5,65.8333 6.5,61.5C 6.95947,58.1226 7.62614,54.7893 8.5,51.5C 11.1367,49.5182 12.47,46.8515 12.5,43.5C 12.8333,43.5 13.1667,43.5 13.5,43.5C 14.7348,43.2786 15.7348,42.6119 16.5,41.5C 17.2975,41.9569 17.6309,42.6236 17.5,43.5 Z"/></g>
<g><path style="opacity:0.373" fill="#3685ce" d="M 87.5,38.5 C 88.8333,39.1667 89.8333,40.1667 90.5,41.5C 92.7844,43.3612 94.6177,45.6945 96,48.5C 102.28,63.7019 101.78,78.7019 94.5,93.5C 92.2559,96.7518 89.5892,99.7518 86.5,102.5C 86.1583,103.338 85.4916,103.672 84.5,103.5C 87.4952,98.4519 86.9952,97.7853 83,101.5C 82.6012,101.272 82.4346,100.938 82.5,100.5C 98.3653,84.3241 100.865,66.6574 90,47.5C 87.5664,44.916 85.3998,42.2493 83.5,39.5C 85.1951,40.8264 86.5284,40.4931 87.5,38.5 Z"/></g>
<g><path style="opacity:0.537" fill="#5194a9" d="M 42.5,80.5 C 45.1444,82.6281 48.1444,84.1281 51.5,85C 52.8228,85.8159 53.4894,86.9826 53.5,88.5C 53.1667,88.5 52.8333,88.5 52.5,88.5C 51.0028,87.6942 49.3361,87.0276 47.5,86.5C 46.8933,86.6236 46.56,86.9569 46.5,87.5C 45.1667,87.5 43.8333,87.5 42.5,87.5C 46.7603,84.8423 46.427,83.6756 41.5,84C 39.8333,85.6667 38.1667,87.3333 36.5,89C 37.448,89.4828 38.448,89.6495 39.5,89.5C 38.063,90.7255 36.3964,91.7255 34.5,92.5C 34.1667,92 33.8333,91.5 33.5,91C 35.9882,87.6788 38.6549,84.5121 41.5,81.5C 42.1667,81.5 42.5,81.1667 42.5,80.5 Z"/></g>
<g><path style="opacity:0.306" fill="#5390ae" d="M 58.5,82.5 C 59.1667,82.5 59.8333,82.5 60.5,82.5C 60.8417,83.3382 61.5084,83.6716 62.5,83.5C 64.3492,84.593 66.0158,85.9263 67.5,87.5C 66.1667,87.1667 64.8333,86.8333 63.5,86.5C 63.1583,85.6618 62.4916,85.3284 61.5,85.5C 60.3065,84.7281 59.3065,83.7281 58.5,82.5 Z"/></g>
<g><path style="opacity:0.29" fill="#b8b3cf" d="M 152.5,83.5 C 153.478,83.811 154.145,84.4777 154.5,85.5C 156.333,85.8333 158.167,86.1667 160,86.5C 162.295,86.4535 164.129,85.7868 165.5,84.5C 166.404,85.209 166.737,86.209 166.5,87.5C 162.815,87.8954 159.148,88.0621 155.5,88C 153.624,87.0816 152.624,85.5816 152.5,83.5 Z"/></g>
<g><path style="opacity:1" fill="#2fcbb8" d="M 42.5,87.5 C 42.0269,88.9063 41.0269,89.573 39.5,89.5C 38.448,89.6495 37.448,89.4828 36.5,89C 38.1667,87.3333 39.8333,85.6667 41.5,84C 46.427,83.6756 46.7603,84.8423 42.5,87.5 Z"/></g>
<g><path style="opacity:0.42" fill="#b6b2cf" d="M 126.5,84.5 C 129.684,86.4136 133.351,87.0803 137.5,86.5C 136.739,87.3909 135.739,88.0576 134.5,88.5C 133.167,87.1667 131.833,87.1667 130.5,88.5C 128.465,87.9588 126.465,87.2922 124.5,86.5C 124.855,85.4777 125.522,84.811 126.5,84.5 Z"/></g>
<g><path style="opacity:0.42" fill="#bab4cc" d="M 171.5,63.5 C 171.5,71.1667 171.5,78.8333 171.5,86.5C 174.5,86.5 177.5,86.5 180.5,86.5C 180.195,81.2384 180.529,76.0717 181.5,71C 186.866,70.6773 192.199,70.1773 197.5,69.5C 196.158,70.793 194.491,71.6264 192.5,72C 189.183,72.4983 185.85,72.665 182.5,72.5C 182.321,77.1513 182.321,81.6513 182.5,86C 181.421,86.956 180.255,87.7894 179,88.5C 177,87.1667 175,87.1667 173,88.5C 171.603,87.7741 170.769,86.6075 170.5,85C 169.655,80.5395 169.322,76.0395 169.5,71.5C 170.167,68.8333 170.833,66.1667 171.5,63.5 Z"/></g>
<g><path style="opacity:0.4" fill="#ada8c4" d="M 242.5,76.5 C 243.267,77.172 243.934,78.0053 244.5,79C 243.556,81.7191 243.223,84.5525 243.5,87.5C 233.917,87.1816 224.417,87.5149 215,88.5C 213.698,87.9152 212.531,87.2485 211.5,86.5C 211.833,86.5 212.167,86.5 212.5,86.5C 222.5,86.5 232.5,86.5 242.5,86.5C 242.5,83.1667 242.5,79.8333 242.5,76.5 Z"/></g>
<g><path style="opacity:0.859" fill="#bcb8d1" d="M 257.5,83.5 C 265.6,86.6104 273.934,87.2771 282.5,85.5C 273.757,89.8653 265.424,89.1986 257.5,83.5 Z"/></g>
<g><path style="opacity:0.395" fill="#bfbad8" d="M 333.5,35.5 C 333.167,35.5 332.833,35.5 332.5,35.5C 322.5,35.5 312.5,35.5 302.5,35.5C 302.5,52.5 302.5,69.5 302.5,86.5C 312.5,86.5 322.5,86.5 332.5,86.5C 332.5,83.5 332.5,80.5 332.5,77.5C 325.646,77.824 318.979,77.4907 312.5,76.5C 319.354,76.824 326.021,76.4907 332.5,75.5C 333.198,78.8973 333.865,82.3973 334.5,86C 334.167,86.3333 333.833,86.6667 333.5,87C 324.256,87.1808 315.089,87.6808 306,88.5C 304.644,87.6198 303.144,87.2865 301.5,87.5C 301.5,69.8333 301.5,52.1667 301.5,34.5C 312.346,34.1722 323.013,34.5056 333.5,35.5 Z"/></g>
<g><path style="opacity:0.439" fill="#bab6cd" d="M 372.5,83.5 C 374.505,84.254 375.172,85.4207 374.5,87C 370.259,88.4573 365.926,88.7907 361.5,88C 360.695,86.8873 360.028,85.7206 359.5,84.5C 363.942,86.4029 368.609,86.9029 373.5,86C 372.748,85.3292 372.414,84.4959 372.5,83.5 Z"/></g>
<g><path style="opacity:1" fill="#27aad7" d="M 70.5,79.5 C 71.593,81.3492 72.9263,83.0158 74.5,84.5C 74.2471,86.8273 74.9137,88.8273 76.5,90.5C 75.7573,91.1818 75.0906,91.8485 74.5,92.5C 71.9528,91.0664 69.6195,89.3998 67.5,87.5C 68.5,87.5 69.5,87.5 70.5,87.5C 70.5,84.8333 70.5,82.1667 70.5,79.5 Z"/></g>
<g><path style="opacity:0.982" fill="#429ad0" d="M 61.5,85.5 C 62.4916,85.3284 63.1583,85.6618 63.5,86.5C 60.5982,88.0514 58.9315,90.3847 58.5,93.5C 57.0689,93.8807 56.2355,94.8807 56,96.5C 55.8138,93.9644 55.3138,91.631 54.5,89.5C 53.8333,89.5 53.5,89.1667 53.5,88.5C 55.3473,85.8285 58.014,84.8285 61.5,85.5 Z"/></g>
<g><path style="opacity:0.967" fill="#438ecc" d="M 74.5,84.5 C 74.8333,84.5 75.1667,84.5 75.5,84.5C 77.034,87.7345 78.7006,90.9012 80.5,94C 80.3333,94.5 80.1667,95 80,95.5C 78.2196,94.3606 76.3863,93.3606 74.5,92.5C 75.0906,91.8485 75.7573,91.1818 76.5,90.5C 74.9137,88.8273 74.2471,86.8273 74.5,84.5 Z"/></g>
<g><path style="opacity:0.369" fill="#5381b4" d="M 46.5,87.5 C 46.56,86.9569 46.8933,86.6236 47.5,86.5C 49.3361,87.0276 51.0028,87.6942 52.5,88.5C 53.0878,94.1458 53.7544,94.4792 54.5,89.5C 55.3138,91.631 55.8138,93.9644 56,96.5C 56.2355,94.8807 57.0689,93.8807 58.5,93.5C 57.8972,96.3076 56.8972,98.9742 55.5,101.5C 53.1722,98.1779 51.3389,94.5113 50,90.5C 48.9609,89.2899 47.7942,88.2899 46.5,87.5 Z"/></g>
<g><path style="opacity:0.89" fill="#5aa9a5" d="M 12.5,96.5 C 14.5311,97.5387 15.8645,99.2054 16.5,101.5C 14.457,100.421 13.1237,98.754 12.5,96.5 Z"/></g>
<g><path style="opacity:0.212" fill="#5f94a4" d="M 22.5,94.5 C 26.5,98.1667 30.5,101.833 34.5,105.5C 29.2227,103.223 25.2227,99.5559 22.5,94.5 Z"/></g>
<g><path style="opacity:0.345" fill="#30aa9a" d="M 16.5,83.5 C 18.4882,87.0912 20.4882,90.7579 22.5,94.5C 25.2227,99.5559 29.2227,103.223 34.5,105.5C 35.7898,106.935 37.4565,107.935 39.5,108.5C 38.624,109.251 37.624,109.751 36.5,110C 37.056,110.383 37.3893,110.883 37.5,111.5C 37.1667,111.5 36.8333,111.5 36.5,111.5C 34.5,110.167 32.5,108.833 30.5,107.5C 23.7575,103.093 18.4242,97.4262 14.5,90.5C 14.5,89.5 14.5,88.5 14.5,87.5C 16.1765,86.8166 16.8432,85.4832 16.5,83.5 Z"/></g>
<g><path style="opacity:1" fill="#279fe0" d="M 94.5,93.5 C 95.8999,94.0998 96.8999,95.0998 97.5,96.5C 95.6283,101.043 92.6283,104.71 88.5,107.5C 88.9227,105.219 88.256,103.552 86.5,102.5C 89.5892,99.7518 92.2559,96.7518 94.5,93.5 Z"/></g>
<g><path style="opacity:0.024" fill="#46a5a1" d="M 16.5,101.5 C 18.4516,102.785 20.1182,104.451 21.5,106.5C 18.856,105.856 17.1894,104.189 16.5,101.5 Z"/></g>
<g><path style="opacity:1" fill="#16e7a5" d="M 14.5,90.5 C 18.4242,97.4262 23.7575,103.093 30.5,107.5C 29.8166,109.176 28.4832,109.843 26.5,109.5C 25.078,108.075 23.4113,107.075 21.5,106.5C 20.1182,104.451 18.4516,102.785 16.5,101.5C 15.8645,99.2054 14.5311,97.5387 12.5,96.5C 12.5,96.1667 12.5,95.8333 12.5,95.5C 12.4431,94.391 12.1098,93.391 11.5,92.5C 12.8589,93.0065 13.8589,94.0065 14.5,95.5C 15.4339,93.9052 15.4339,92.2385 14.5,90.5 Z"/></g>
<g><path style="opacity:1" fill="#12aee0" d="M 86.5,102.5 C 88.256,103.552 88.9227,105.219 88.5,107.5C 85.1667,109.167 81.8333,110.833 78.5,112.5C 78.1788,110.952 77.1788,110.285 75.5,110.5C 78.9852,108.692 81.9852,106.359 84.5,103.5C 85.4916,103.672 86.1583,103.338 86.5,102.5 Z"/></g>
<g><path style="opacity:0.302" fill="#3f8ebe" d="M 84.5,103.5 C 81.9852,106.359 78.9852,108.692 75.5,110.5C 71.4235,112.524 67.0902,113.524 62.5,113.5C 62.6107,112.883 62.944,112.383 63.5,112C 57.5,111.667 51.5,111.333 45.5,111C 43.6854,110.243 42.0188,109.41 40.5,108.5C 53.7009,112.435 66.3675,110.935 78.5,104C 79.7051,102.624 81.0384,101.458 82.5,100.5C 82.4346,100.938 82.6012,101.272 83,101.5C 86.9952,97.7853 87.4952,98.4519 84.5,103.5 Z"/></g>
<g><path style="opacity:0.38" fill="#5190bc" d="M 88.5,107.5 C 77.7549,116.972 65.0882,121.305 50.5,120.5C 57.9014,119.98 65.2347,118.48 72.5,116C 74.8791,115.284 76.8791,114.117 78.5,112.5C 81.8333,110.833 85.1667,109.167 88.5,107.5 Z"/></g>
<g><path style="opacity:0.482" fill="#479a9a" d="M 21.5,106.5 C 23.4113,107.075 25.078,108.075 26.5,109.5C 26.8333,110.167 27.1667,110.833 27.5,111.5C 24.9108,110.581 22.9108,108.914 21.5,106.5 Z"/></g>
<g><path style="opacity:1" fill="#30a8b5" d="M 34.5,105.5 C 37.216,105.386 39.216,106.386 40.5,108.5C 42.0188,109.41 43.6854,110.243 45.5,111C 51.5,111.333 57.5,111.667 63.5,112C 62.944,112.383 62.6107,112.883 62.5,113.5C 62.0825,114.222 61.4158,114.722 60.5,115C 57.1832,115.498 53.8499,115.665 50.5,115.5C 46.031,114.412 41.6976,113.079 37.5,111.5C 37.3893,110.883 37.056,110.383 36.5,110C 37.624,109.751 38.624,109.251 39.5,108.5C 37.4565,107.935 35.7898,106.935 34.5,105.5 Z"/></g>
<g><path style="opacity:1" fill="#10dcb3" d="M 30.5,107.5 C 32.5,108.833 34.5,110.167 36.5,111.5C 37.4293,112.315 38.4293,113.148 39.5,114C 38.6667,114.167 37.8333,114.333 37,114.5C 33.9639,113.017 30.7972,112.017 27.5,111.5C 27.1667,110.833 26.8333,110.167 26.5,109.5C 28.4832,109.843 29.8166,109.176 30.5,107.5 Z"/></g>
<g><path style="opacity:1" fill="#1bcebc" d="M 27.5,111.5 C 30.7972,112.017 33.9639,113.017 37,114.5C 37.8333,114.333 38.6667,114.167 39.5,114C 38.4293,113.148 37.4293,112.315 36.5,111.5C 36.8333,111.5 37.1667,111.5 37.5,111.5C 41.6976,113.079 46.031,114.412 50.5,115.5C 53.6893,116.166 57.0227,116.833 60.5,117.5C 51.7484,118.378 43.0818,117.711 34.5,115.5C 31.6689,114.921 29.3356,113.588 27.5,111.5 Z"/></g>
<g><path style="opacity:1" fill="#2bb9c5" d="M 75.5,110.5 C 77.1788,110.285 78.1788,110.952 78.5,112.5C 76.8791,114.117 74.8791,115.284 72.5,116C 65.2347,118.48 57.9014,119.98 50.5,120.5C 44.7748,119.742 39.4415,118.075 34.5,115.5C 43.0818,117.711 51.7484,118.378 60.5,117.5C 57.0227,116.833 53.6893,116.166 50.5,115.5C 53.8499,115.665 57.1832,115.498 60.5,115C 61.4158,114.722 62.0825,114.222 62.5,113.5C 67.0902,113.524 71.4235,112.524 75.5,110.5 Z"/></g>
</svg>
