<?xml version="1.0" encoding="UTF-8"?>
<!DOCTYPE svg PUBLIC "-//W3C//DTD SVG 1.1//EN" "http://www.w3.org/Graphics/SVG/1.1/DTD/svg11.dtd">
<svg xmlns="http://www.w3.org/2000/svg" version="1.1" width="615px" height="405px" style="shape-rendering:geometricPrecision; text-rendering:geometricPrecision; image-rendering:optimizeQuality; fill-rule:evenodd; clip-rule:evenodd" xmlns:xlink="http://www.w3.org/1999/xlink">
<g><path style="opacity:1" fill="#4a9fb4" d="M 174.5,141.5 C 173.552,142.978 172.219,143.978 170.5,144.5C 170.158,145.338 169.492,145.672 168.5,145.5C 169.85,144.35 169.684,143.683 168,143.5C 166.697,143.978 165.531,144.645 164.5,145.5C 165.219,143.112 166.885,141.612 169.5,141C 171.387,140.22 173.054,140.387 174.5,141.5 Z"/></g>
<g><path style="opacity:1" fill="#4cadac" d="M 168.5,145.5 C 167.833,146.833 166.833,147.833 165.5,148.5C 165.361,146.663 164.694,146.33 163.5,147.5C 161.945,149.943 161.278,152.61 161.5,155.5C 159.747,151.358 160.747,148.024 164.5,145.5C 165.531,144.645 166.697,143.978 168,143.5C 169.684,143.683 169.85,144.35 168.5,145.5 Z"/></g>
<g><path style="opacity:0.757" fill="#4493c0" d="M 174.5,141.5 C 177.643,141.969 179.977,143.636 181.5,146.5C 181.715,148.179 181.048,149.179 179.5,149.5C 177.309,146.567 174.309,144.9 170.5,144.5C 172.219,143.978 173.552,142.978 174.5,141.5 Z"/></g>
<g><path style="opacity:0.953" fill="#4c83c8" d="M 181.5,146.5 C 185.738,150.882 185.404,154.882 180.5,158.5C 178.678,159.429 177.345,158.762 176.5,156.5C 179.092,154.964 180.092,152.631 179.5,149.5C 181.048,149.179 181.715,148.179 181.5,146.5 Z"/></g>
<g><path style="opacity:0.969" fill="#34cea7" d="M 165.5,148.5 C 164.274,150.942 162.941,153.276 161.5,155.5C 161.278,152.61 161.945,149.943 163.5,147.5C 164.694,146.33 165.361,146.663 165.5,148.5 Z"/></g>
<g><path style="opacity:0.867" fill="#49a0ab" d="M 165.5,148.5 C 164.425,150.856 164.425,153.189 165.5,155.5C 167.128,156.535 168.795,156.535 170.5,155.5C 169.833,156.5 169.167,157.5 168.5,158.5C 167.733,159.172 167.066,160.005 166.5,161C 163.854,161.497 161.187,161.664 158.5,161.5C 160.389,160.678 162.389,159.845 164.5,159C 163.29,157.961 162.29,156.794 161.5,155.5C 162.941,153.276 164.274,150.942 165.5,148.5 Z"/></g>
<g><path style="opacity:0.627" fill="#4593b3" d="M 170.5,155.5 C 172.638,154.192 174.638,154.525 176.5,156.5C 177.345,158.762 178.678,159.429 180.5,158.5C 182.5,159.5 184.5,160.5 186.5,161.5C 183.763,161.599 181.096,161.265 178.5,160.5C 176.704,159.207 175.037,157.707 173.5,156C 172.552,155.517 171.552,155.351 170.5,155.5 Z"/></g>
<g><path style="opacity:1" fill="#10c5cb" d="M 170.5,155.5 C 171.552,155.351 172.552,155.517 173.5,156C 175.037,157.707 176.704,159.207 178.5,160.5C 180.45,162.026 182.783,163.026 185.5,163.5C 183.257,164.474 180.924,164.808 178.5,164.5C 175.833,164.5 173.167,164.5 170.5,164.5C 171.209,163.596 172.209,163.263 173.5,163.5C 173.502,161.169 172.669,159.169 171,157.5C 170.329,158.252 169.496,158.586 168.5,158.5C 169.167,157.5 169.833,156.5 170.5,155.5 Z"/></g>
<g><path style="opacity:0.643" fill="#46a0a9" d="M 158.5,161.5 C 155.47,163.403 152.137,164.737 148.5,165.5C 151.37,163.206 154.703,161.872 158.5,161.5 Z"/></g>
<g><path style="opacity:1" fill="#1bd0ba" d="M 170.5,164.5 C 166.613,164.646 162.946,165.313 159.5,166.5C 155.464,168.188 151.464,169.855 147.5,171.5C 149.123,170.221 150.79,168.887 152.5,167.5C 152,167.167 151.5,166.833 151,166.5C 148.524,168.487 145.69,169.487 142.5,169.5C 144.147,167.674 146.147,166.34 148.5,165.5C 152.137,164.737 155.47,163.403 158.5,161.5C 161.187,161.664 163.854,161.497 166.5,161C 167.066,160.005 167.733,159.172 168.5,158.5C 169.496,158.586 170.329,158.252 171,157.5C 172.669,159.169 173.502,161.169 173.5,163.5C 172.209,163.263 171.209,163.596 170.5,164.5 Z"/></g>
<g><path style="opacity:1" fill="#16bbd3" d="M 178.5,160.5 C 181.096,161.265 183.763,161.599 186.5,161.5C 189.417,163.38 192.417,165.38 195.5,167.5C 194.311,168.429 192.978,168.762 191.5,168.5C 190.081,167.549 188.415,167.216 186.5,167.5C 186.389,166.883 186.056,166.383 185.5,166C 183.19,165.503 180.857,165.337 178.5,165.5C 178.5,165.167 178.5,164.833 178.5,164.5C 180.924,164.808 183.257,164.474 185.5,163.5C 182.783,163.026 180.45,162.026 178.5,160.5 Z"/></g>
<g><path style="opacity:0.376" fill="#399fb0" d="M 170.5,164.5 C 173.167,164.5 175.833,164.5 178.5,164.5C 178.5,164.833 178.5,165.167 178.5,165.5C 178.056,166.819 176.723,167.819 174.5,168.5C 174.372,170.09 173.705,171.423 172.5,172.5C 171.167,171.167 169.833,169.833 168.5,168.5C 162.982,169.785 157.648,171.452 152.5,173.5C 153.79,172.065 155.456,171.065 157.5,170.5C 157.291,169.914 156.957,169.414 156.5,169C 158.119,168.764 159.119,167.931 159.5,166.5C 162.946,165.313 166.613,164.646 170.5,164.5 Z"/></g>
<g><path style="opacity:1" fill="#3c9bbd" d="M 178.5,165.5 C 180.857,165.337 183.19,165.503 185.5,166C 186.056,166.383 186.389,166.883 186.5,167.5C 185.262,167.81 185.262,168.31 186.5,169C 190.767,169.987 191.1,170.821 187.5,171.5C 183.196,170.372 178.862,169.372 174.5,168.5C 176.723,167.819 178.056,166.819 178.5,165.5 Z"/></g>
<g><path style="opacity:0.871" fill="#449fa0" d="M 142.5,169.5 C 139.167,173.5 135.5,177.167 131.5,180.5C 134.167,175.833 137.833,172.167 142.5,169.5 Z"/></g>
<g><path style="opacity:1" fill="#2fa9da" d="M 186.5,161.5 C 195.643,163.898 203.31,168.564 209.5,175.5C 208.628,176.612 208.628,177.946 209.5,179.5C 209.253,180.713 208.586,181.38 207.5,181.5C 206.833,180.167 205.833,179.167 204.5,178.5C 200.711,174.441 196.378,171.108 191.5,168.5C 192.978,168.762 194.311,168.429 195.5,167.5C 192.417,165.38 189.417,163.38 186.5,161.5 Z"/></g>
<g><path style="opacity:0.282" fill="#2f8fc5" d="M 186.5,167.5 C 188.415,167.216 190.081,167.549 191.5,168.5C 196.378,171.108 200.711,174.441 204.5,178.5C 203.528,180.493 202.195,180.826 200.5,179.5C 196.599,176.054 192.266,173.387 187.5,171.5C 191.1,170.821 190.767,169.987 186.5,169C 185.262,168.31 185.262,167.81 186.5,167.5 Z"/></g>
<g><path style="opacity:0.457" fill="#b0a8d1" d="M 254.5,175.5 C 250.351,174.92 246.684,175.586 243.5,177.5C 242.522,177.189 241.855,176.522 241.5,175.5C 245.984,174.189 250.317,174.189 254.5,175.5 Z"/></g>
<g><path style="opacity:0.467" fill="#b4acd3" d="M 282.5,177.5 C 281.129,176.213 279.295,175.547 277,175.5C 275.167,175.833 273.333,176.167 271.5,176.5C 271.145,177.522 270.478,178.189 269.5,178.5C 269.539,177.417 269.873,176.417 270.5,175.5C 274.783,174.508 279.116,174.174 283.5,174.5C 283.737,175.791 283.404,176.791 282.5,177.5 Z"/></g>
<g><path style="opacity:0.698" fill="#b5aac4" d="M 390.5,173.5 C 386.8,175.245 382.8,176.245 378.5,176.5C 382.126,174.502 386.126,173.502 390.5,173.5 Z"/></g>
<g><path style="opacity:1" fill="#f7f6f9" d="M 254.5,175.5 C 255.89,176.899 256.89,178.566 257.5,180.5C 257.427,182.027 258.094,183.027 259.5,183.5C 260.644,185.1 261.811,186.767 263,188.5C 265.03,184.991 267.196,181.658 269.5,178.5C 270.478,178.189 271.145,177.522 271.5,176.5C 273.333,176.167 275.167,175.833 277,175.5C 279.295,175.547 281.129,176.213 282.5,177.5C 280.417,182 278.084,186.334 275.5,190.5C 273.75,191.659 272.75,193.326 272.5,195.5C 272.672,196.492 272.338,197.158 271.5,197.5C 269.707,197.884 268.707,199.05 268.5,201C 269.812,203.807 271.479,206.307 273.5,208.5C 273.427,210.027 274.094,211.027 275.5,211.5C 278.084,215.666 280.417,220 282.5,224.5C 281.129,225.787 279.295,226.453 277,226.5C 275.167,226.167 273.333,225.833 271.5,225.5C 271.145,224.478 270.478,223.811 269.5,223.5C 267.917,221.337 266.584,219.004 265.5,216.5C 265.716,214.319 264.883,212.653 263,211.5C 261.961,212.244 261.461,213.244 261.5,214.5C 261.34,216.153 260.674,217.486 259.5,218.5C 257.75,219.659 256.75,221.326 256.5,223.5C 256.573,225.027 255.906,226.027 254.5,226.5C 250.351,227.08 246.684,226.414 243.5,224.5C 243.975,222.216 244.975,220.216 246.5,218.5C 248.25,217.341 249.25,215.674 249.5,213.5C 251.588,211.664 252.921,209.331 253.5,206.5C 258.833,202.833 258.833,199.167 253.5,195.5C 252.326,194.486 251.66,193.153 251.5,191.5C 249.892,188.2 248.225,184.867 246.5,181.5C 246.043,180.702 245.376,180.369 244.5,180.5C 243.89,179.609 243.557,178.609 243.5,177.5C 246.684,175.586 250.351,174.92 254.5,175.5 Z"/></g>
<g><path style="opacity:1" fill="#fcfbfc" d="M 311.5,175.5 C 313.38,175.229 314.713,175.896 315.5,177.5C 317.167,179.833 319.167,181.833 321.5,183.5C 323.213,184.635 323.88,186.302 323.5,188.5C 323.533,192.869 323.2,197.202 322.5,201.5C 320.833,205.167 318.167,207.833 314.5,209.5C 309.199,210.177 303.866,210.677 298.5,211C 297.529,216.072 297.195,221.238 297.5,226.5C 294.5,226.5 291.5,226.5 288.5,226.5C 288.5,218.833 288.5,211.167 288.5,203.5C 288.5,194.167 288.5,184.833 288.5,175.5C 296.167,175.5 303.833,175.5 311.5,175.5 Z M 312.5,193.5 C 312.5,194.833 312.5,196.167 312.5,197.5C 308.179,200.125 303.513,200.958 298.5,200C 299.467,195.599 299.8,191.099 299.5,186.5C 303.308,186.163 306.974,186.663 310.5,188C 311.861,189.584 312.528,191.418 312.5,193.5 Z"/></g>
<g><path style="opacity:1" fill="#fdfdfd" d="M 359.5,216.5 C 359.5,219.833 359.5,223.167 359.5,226.5C 349.5,226.5 339.5,226.5 329.5,226.5C 329.5,209.5 329.5,192.5 329.5,175.5C 332.5,175.5 335.5,175.5 338.5,175.5C 338.5,189.167 338.5,202.833 338.5,216.5C 345.5,216.5 352.5,216.5 359.5,216.5 Z"/></g>
<g><path style="opacity:1" fill="#f9f8fb" d="M 390.5,173.5 C 391.492,173.328 392.158,173.662 392.5,174.5C 394.68,175.9 397.68,176.9 401.5,177.5C 403.434,178.11 405.101,179.11 406.5,180.5C 406.738,182.478 408.071,184.145 410.5,185.5C 411.326,188.485 412.659,191.151 414.5,193.5C 414.872,200.301 414.206,206.967 412.5,213.5C 411.89,215.434 410.89,217.101 409.5,218.5C 409.565,218.062 409.399,217.728 409,217.5C 407.833,218.667 406.667,219.833 405.5,221C 405.728,221.399 406.062,221.565 406.5,221.5C 404.664,223.588 402.331,224.921 399.5,225.5C 390.934,227.277 382.6,226.61 374.5,223.5C 372.5,220.833 370.167,218.5 367.5,216.5C 365.75,215.341 364.75,213.674 364.5,211.5C 364.464,208.872 363.797,207.205 362.5,206.5C 361.662,206.158 361.328,205.492 361.5,204.5C 362.491,199.95 363.491,195.283 364.5,190.5C 364.328,189.508 364.662,188.842 365.5,188.5C 368.138,185.526 370.805,182.526 373.5,179.5C 374.659,177.75 376.326,176.75 378.5,176.5C 382.8,176.245 386.8,175.245 390.5,173.5 Z M 403.5,196.5 C 404.021,201.846 403.021,206.846 400.5,211.5C 399.833,211.5 399.5,211.833 399.5,212.5C 393.783,215.539 387.783,216.205 381.5,214.5C 379.167,212.833 377.167,210.833 375.5,208.5C 373.712,202.148 374.379,196.148 377.5,190.5C 379.875,189.098 382.209,187.765 384.5,186.5C 393.1,185.302 399.433,188.635 403.5,196.5 Z"/></g>
<g><path style="opacity:0.027" fill="#aba9bd" d="M 392.5,174.5 C 396.044,174.132 399.044,175.132 401.5,177.5C 397.68,176.9 394.68,175.9 392.5,174.5 Z"/></g>
<g><path style="opacity:1" fill="#fefdfd" d="M 449.5,175.5 C 449.5,178.5 449.5,181.5 449.5,184.5C 442.646,184.176 435.979,184.509 429.5,185.5C 428.18,188.899 428.18,192.399 429.5,196C 434.489,196.499 439.489,196.666 444.5,196.5C 444.5,199.5 444.5,202.5 444.5,205.5C 439.305,205.179 434.305,205.513 429.5,206.5C 429.5,209.833 429.5,213.167 429.5,216.5C 435.979,217.491 442.646,217.824 449.5,217.5C 449.5,220.5 449.5,223.5 449.5,226.5C 439.5,226.5 429.5,226.5 419.5,226.5C 419.5,209.5 419.5,192.5 419.5,175.5C 429.5,175.5 439.5,175.5 449.5,175.5 Z"/></g>
<g><path style="opacity:0.999" fill="#fafafb" d="M 480.5,176.5 C 488.917,181.902 491.751,189.569 489,199.5C 488.208,201.587 487.041,203.421 485.5,205C 485.728,205.399 486.062,205.565 486.5,205.5C 485.71,206.401 484.71,207.068 483.5,207.5C 480.949,207.668 480.282,208.668 481.5,210.5C 484.414,214.658 487.081,218.991 489.5,223.5C 489.414,224.496 489.748,225.329 490.5,226C 485.609,226.903 480.942,226.403 476.5,224.5C 473.503,219.841 470.503,215.175 467.5,210.5C 467.631,209.624 467.298,208.957 466.5,208.5C 465.504,214.463 465.171,220.463 465.5,226.5C 462.167,226.5 458.833,226.5 455.5,226.5C 455.5,209.5 455.5,192.5 455.5,175.5C 463.875,175.26 472.208,175.593 480.5,176.5 Z M 478.5,196.5 C 477.5,196.833 476.833,197.5 476.5,198.5C 473.093,198.857 469.926,199.191 467,199.5C 466.501,195.179 466.334,190.846 466.5,186.5C 475.16,184.504 479.16,187.838 478.5,196.5 Z"/></g>
<g><path style="opacity:0.02" fill="#a8a5ba" d="M 315.5,177.5 C 318.5,178.5 320.5,180.5 321.5,183.5C 319.167,181.833 317.167,179.833 315.5,177.5 Z"/></g>
<g><path style="opacity:1" fill="#14e5a7" d="M 147.5,171.5 C 142.866,175.132 138.533,179.132 134.5,183.5C 134.631,182.624 134.298,181.957 133.5,181.5C 132.735,182.612 131.735,183.279 130.5,183.5C 131.11,182.609 131.443,181.609 131.5,180.5C 135.5,177.167 139.167,173.5 142.5,169.5C 145.69,169.487 148.524,168.487 151,166.5C 151.5,166.833 152,167.167 152.5,167.5C 150.79,168.887 149.123,170.221 147.5,171.5 Z"/></g>
<g><path style="opacity:0.561" fill="#b7b5cb" d="M 480.5,176.5 C 489.774,180.435 493.274,187.435 491,197.5C 490.246,200.684 488.746,203.351 486.5,205.5C 486.062,205.565 485.728,205.399 485.5,205C 487.041,203.421 488.208,201.587 489,199.5C 491.751,189.569 488.917,181.902 480.5,176.5 Z"/></g>
<g><path style="opacity:0.671" fill="#45999e" d="M 131.5,180.5 C 131.443,181.609 131.11,182.609 130.5,183.5C 130.167,183.5 129.833,183.5 129.5,183.5C 129.427,181.973 130.094,180.973 131.5,180.5 Z"/></g>
<g><path style="opacity:0.204" fill="#9c8bb0" d="M 257.5,180.5 C 258.906,180.973 259.573,181.973 259.5,183.5C 258.094,183.027 257.427,182.027 257.5,180.5 Z"/></g>
<g><path style="opacity:0.349" fill="#a39abe" d="M 406.5,180.5 C 408.587,181.585 409.92,183.251 410.5,185.5C 408.071,184.145 406.738,182.478 406.5,180.5 Z"/></g>
<g><path style="opacity:0.031" fill="#aea5c7" d="M 244.5,180.5 C 245.376,180.369 246.043,180.702 246.5,181.5C 248.225,184.867 249.892,188.2 251.5,191.5C 248.432,188.378 246.098,184.711 244.5,180.5 Z"/></g>
<g><path style="opacity:0.443" fill="#bcb9cf" d="M 373.5,179.5 C 370.805,182.526 368.138,185.526 365.5,188.5C 366.768,184.233 369.435,181.233 373.5,179.5 Z"/></g>
<g><path style="opacity:0.828" fill="#dedbef" d="M 449.5,175.5 C 449.833,175.5 450.167,175.5 450.5,175.5C 451.59,178.985 451.59,182.319 450.5,185.5C 443.5,185.5 436.5,185.5 429.5,185.5C 435.979,184.509 442.646,184.176 449.5,184.5C 449.5,181.5 449.5,178.5 449.5,175.5 Z"/></g>
<g><path style="opacity:0.122" fill="#8b85ae" d="M 429.5,185.5 C 436.5,185.5 443.5,185.5 450.5,185.5C 443.605,185.85 436.938,186.85 430.5,188.5C 429.596,187.791 429.263,186.791 429.5,185.5 Z"/></g>
<g><path style="opacity:0.722" fill="#b1adc4" d="M 312.5,193.5 C 312.528,191.418 311.861,189.584 310.5,188C 306.974,186.663 303.308,186.163 299.5,186.5C 299.8,191.099 299.467,195.599 298.5,200C 303.513,200.958 308.179,200.125 312.5,197.5C 311.878,199.335 310.544,200.502 308.5,201C 304.848,201.499 301.182,201.665 297.5,201.5C 297.5,196.167 297.5,190.833 297.5,185.5C 301.846,185.334 306.179,185.501 310.5,186C 313.17,188.183 313.837,190.683 312.5,193.5 Z"/></g>
<g><path style="opacity:0.537" fill="#b3adcb" d="M 410.5,185.5 C 412.873,187.579 414.206,190.246 414.5,193.5C 412.659,191.151 411.326,188.485 410.5,185.5 Z"/></g>
<g><path style="opacity:0.627" fill="#43b0a0" d="M 129.5,183.5 C 129.47,186.852 128.137,189.518 125.5,191.5C 125.794,188.246 127.127,185.579 129.5,183.5 Z"/></g>
<g><path style="opacity:0.012" fill="#5ea4af" d="M 162.5,193.5 C 162.167,193.5 161.833,193.5 161.5,193.5C 157.896,191.739 154.396,189.739 151,187.5C 149.97,187.836 149.47,188.503 149.5,189.5C 146.837,187.889 146.337,185.889 148,183.5C 152.987,186.733 157.82,190.066 162.5,193.5 Z"/></g>
<g><path style="opacity:1" fill="#3daba0" d="M 159.5,166.5 C 159.119,167.931 158.119,168.764 156.5,169C 156.957,169.414 157.291,169.914 157.5,170.5C 155.456,171.065 153.79,172.065 152.5,173.5C 143.648,179.025 137.314,186.692 133.5,196.5C 134.707,193.148 134.707,189.814 133.5,186.5C 134.11,185.609 134.443,184.609 134.5,183.5C 138.533,179.132 142.866,175.132 147.5,171.5C 151.464,169.855 155.464,168.188 159.5,166.5 Z"/></g>
<g><path style="opacity:0.494" fill="#b4adc6" d="M 403.5,196.5 C 399.433,188.635 393.1,185.302 384.5,186.5C 391.158,183.671 396.992,185.338 402,191.5C 403.009,193.025 403.509,194.692 403.5,196.5 Z"/></g>
<g><path style="opacity:0.601" fill="#cac6df" d="M 359.5,216.5 C 352.5,216.5 345.5,216.5 338.5,216.5C 338.5,202.833 338.5,189.167 338.5,175.5C 335.5,175.5 332.5,175.5 329.5,175.5C 329.5,192.5 329.5,209.5 329.5,226.5C 329.167,226.5 328.833,226.5 328.5,226.5C 328.5,209.167 328.5,191.833 328.5,174.5C 332.167,174.5 335.833,174.5 339.5,174.5C 339.975,188.136 339.975,201.803 339.5,215.5C 346.354,215.176 353.021,215.509 359.5,216.5 Z"/></g>
<g><path style="opacity:0.918" fill="#558bb7" d="M 186.5,197.5 C 185.833,197.5 185.5,197.833 185.5,198.5C 183.973,198.573 182.973,197.906 182.5,196.5C 179.743,195.488 177.076,194.488 174.5,193.5C 174.5,192.833 174.5,192.167 174.5,191.5C 174.5,190.5 174.5,189.5 174.5,188.5C 174.423,187.25 173.756,186.417 172.5,186C 173.76,184.186 173.76,182.353 172.5,180.5C 171.712,181.77 170.712,182.77 169.5,183.5C 169.886,181.063 171.053,179.063 173,177.5C 174.484,182.634 176.65,187.468 179.5,192C 180.833,192.667 182.167,192.667 183.5,192C 186.575,190.38 189.742,188.88 193,187.5C 193.5,187.833 194,188.167 194.5,188.5C 191.811,191.52 189.144,194.52 186.5,197.5 Z"/></g>
<g><path style="opacity:0.149" fill="#aa9abb" d="M 275.5,190.5 C 275.25,192.674 274.25,194.341 272.5,195.5C 272.75,193.326 273.75,191.659 275.5,190.5 Z"/></g>
<g><path style="opacity:0.442" fill="#b6b0d1" d="M 480.5,176.5 C 472.208,175.593 463.875,175.26 455.5,175.5C 455.5,192.5 455.5,209.5 455.5,226.5C 458.833,226.5 462.167,226.5 465.5,226.5C 462.977,227.254 460.311,227.92 457.5,228.5C 456.833,228.167 456.167,227.833 455.5,227.5C 454.5,209.846 454.167,192.179 454.5,174.5C 459.952,174.053 465.285,173.719 470.5,173.5C 474.185,173.759 477.518,174.759 480.5,176.5 Z"/></g>
<g><path style="opacity:0.529" fill="#439895" d="M 125.5,191.5 C 124.626,194.789 123.959,198.123 123.5,201.5C 123.167,201.5 122.833,201.5 122.5,201.5C 122.32,197.714 123.32,194.381 125.5,191.5 Z"/></g>
<g><path style="opacity:1" fill="#3bc4a1" d="M 133.5,186.5 C 134.707,189.814 134.707,193.148 133.5,196.5C 133.672,197.492 133.338,198.158 132.5,198.5C 129.934,206.182 129.934,213.849 132.5,221.5C 133.338,221.842 133.672,222.508 133.5,223.5C 133.843,225.483 133.176,226.817 131.5,227.5C 129.309,225.038 127.976,222.038 127.5,218.5C 128.222,218.918 128.722,219.584 129,220.5C 127.997,211.683 128.83,203.016 131.5,194.5C 131.043,193.702 130.376,193.369 129.5,193.5C 130.838,191.132 132.172,188.798 133.5,186.5 Z"/></g>
<g><path style="opacity:0.024" fill="#509fa4" d="M 174.5,188.5 C 172.015,189.26 172.015,190.26 174.5,191.5C 174.5,192.167 174.5,192.833 174.5,193.5C 173.883,193.389 173.383,193.056 173,192.5C 170.622,193.967 168.122,194.967 165.5,195.5C 163.973,195.573 162.973,194.906 162.5,193.5C 166.23,192.032 168.563,189.365 169.5,185.5C 169.5,184.833 169.5,184.167 169.5,183.5C 170.712,182.77 171.712,181.77 172.5,180.5C 173.76,182.353 173.76,184.186 172.5,186C 173.756,186.417 174.423,187.25 174.5,188.5 Z"/></g>
<g><path style="opacity:1" fill="#29d5b4" d="M 169.5,185.5 C 170.117,185.389 170.617,185.056 171,184.5C 171.667,187.167 171.667,189.833 171,192.5C 169.817,193.731 168.651,193.731 167.5,192.5C 168.946,190.382 169.613,188.049 169.5,185.5 Z"/></g>
<g><path style="opacity:1" fill="#22aed3" d="M 182.5,196.5 C 182.586,195.504 182.252,194.671 181.5,194C 183.534,192.795 185.534,192.628 187.5,193.5C 186.579,195.756 184.912,196.756 182.5,196.5 Z"/></g>
<g><path style="opacity:0.634" fill="#cbc8da" d="M 311.5,175.5 C 303.833,175.5 296.167,175.5 288.5,175.5C 288.5,184.833 288.5,194.167 288.5,203.5C 287.833,206.167 287.167,208.833 286.5,211.5C 286.272,199.141 286.605,186.807 287.5,174.5C 295.684,174.174 303.684,174.508 311.5,175.5 Z"/></g>
<g><path style="opacity:0.6" fill="#c4bfd9" d="M 323.5,188.5 C 325.67,192.898 325.337,197.231 322.5,201.5C 323.2,197.202 323.533,192.869 323.5,188.5 Z"/></g>
<g><path style="opacity:1" fill="#1cd1ba" d="M 161.5,193.5 C 162.354,195.035 162.354,196.368 161.5,197.5C 160.609,196.89 159.609,196.557 158.5,196.5C 155.826,193.748 152.826,191.415 149.5,189.5C 149.47,188.503 149.97,187.836 151,187.5C 154.396,189.739 157.896,191.739 161.5,193.5 Z"/></g>
<g><path style="opacity:0.62" fill="#aaa4c6" d="M 364.5,190.5 C 363.491,195.283 362.491,199.95 361.5,204.5C 361.044,199.393 362.044,194.726 364.5,190.5 Z"/></g>
<g><path style="opacity:0.545" fill="#c0bbd0" d="M 377.5,190.5 C 374.379,196.148 373.712,202.148 375.5,208.5C 373.106,206.668 372.106,204.168 372.5,201C 372.449,196.605 374.116,193.105 377.5,190.5 Z"/></g>
<g><path style="opacity:0.471" fill="#bebbd2" d="M 478.5,196.5 C 479.16,187.838 475.16,184.504 466.5,186.5C 466.334,190.846 466.501,195.179 467,199.5C 469.926,199.191 473.093,198.857 476.5,198.5C 476.389,199.117 476.056,199.617 475.5,200C 471.848,200.499 468.182,200.665 464.5,200.5C 464.5,195.5 464.5,190.5 464.5,185.5C 468.514,185.334 472.514,185.501 476.5,186C 480.3,189.154 480.967,192.654 478.5,196.5 Z"/></g>
<g><path style="opacity:1" fill="#45a9b5" d="M 149.5,189.5 C 152.826,191.415 155.826,193.748 158.5,196.5C 157.167,196.833 157.167,197.167 158.5,197.5C 158.5,198.167 158.833,198.5 159.5,198.5C 159.328,199.492 159.662,200.158 160.5,200.5C 161.242,202.98 162.242,205.313 163.5,207.5C 163.5,208.833 162.833,209.5 161.5,209.5C 160.442,208.4 159.608,207.066 159,205.5C 158.329,204.748 157.496,204.414 156.5,204.5C 156.5,203.833 156.5,203.167 156.5,202.5C 154.421,198.007 152.088,193.674 149.5,189.5 Z"/></g>
<g><path style="opacity:1" fill="#0ec2d1" d="M 161.5,193.5 C 161.833,193.5 162.167,193.5 162.5,193.5C 162.973,194.906 163.973,195.573 165.5,195.5C 166.8,196.827 168.133,198.16 169.5,199.5C 168.754,200.736 168.421,202.07 168.5,203.5C 165.268,202.606 162.935,200.606 161.5,197.5C 162.354,196.368 162.354,195.035 161.5,193.5 Z"/></g>
<g><path style="opacity:1" fill="#259dec" d="M 209.5,175.5 C 223.213,191.617 226.38,209.617 219,229.5C 217.974,232.239 216.474,234.572 214.5,236.5C 213.9,235.1 212.9,234.1 211.5,233.5C 218.78,218.702 219.28,203.702 213,188.5C 211.618,185.695 209.784,183.361 207.5,181.5C 208.586,181.38 209.253,180.713 209.5,179.5C 208.628,177.946 208.628,176.612 209.5,175.5 Z"/></g>
<g><path style="opacity:0.569" fill="#b7b4cc" d="M 253.5,195.5 C 258.833,199.167 258.833,202.833 253.5,206.5C 253.84,204.321 254.84,202.488 256.5,201C 254.84,199.512 253.84,197.679 253.5,195.5 Z"/></g>
<g><path style="opacity:0.6" fill="#b9b4d0" d="M 271.5,197.5 C 271.489,199.017 270.823,200.184 269.5,201C 271.495,203.157 272.828,205.657 273.5,208.5C 271.479,206.307 269.812,203.807 268.5,201C 268.707,199.05 269.707,197.884 271.5,197.5 Z"/></g>
<g><path style="opacity:1" fill="#40abcf" d="M 165.5,195.5 C 168.76,196.774 171.76,198.44 174.5,200.5C 171.706,201.585 171.039,203.418 172.5,206C 170.512,206.18 168.512,206.014 166.5,205.5C 164.5,203.833 162.5,202.167 160.5,200.5C 160.672,199.508 160.338,198.842 159.5,198.5C 158.833,198.5 158.5,198.167 158.5,197.5C 158.5,197.167 158.5,196.833 158.5,196.5C 159.609,196.557 160.609,196.89 161.5,197.5C 162.935,200.606 165.268,202.606 168.5,203.5C 168.421,202.07 168.754,200.736 169.5,199.5C 168.133,198.16 166.8,196.827 165.5,195.5 Z"/></g>
<g><path style="opacity:1" fill="#529cad" d="M 186.5,197.5 C 188.884,199.247 190.55,201.58 191.5,204.5C 194.016,205.33 196.35,206.33 198.5,207.5C 198.179,209.048 197.179,209.715 195.5,209.5C 195.586,208.504 195.252,207.671 194.5,207C 190.886,204.167 189.219,205 189.5,209.5C 191.167,209.5 192.833,209.5 194.5,209.5C 194.737,210.791 194.404,211.791 193.5,212.5C 192.322,211.001 190.655,210.001 188.5,209.5C 187.617,205.724 186.617,202.057 185.5,198.5C 186.167,198.5 186.5,198.167 186.5,197.5 Z"/></g>
<g><path style="opacity:0.247" fill="#ada8c0" d="M 414.5,193.5 C 415.234,194.878 415.901,196.378 416.5,198C 415.707,201.411 415.207,204.911 415,208.5C 414.626,210.491 413.793,212.158 412.5,213.5C 414.206,206.967 414.872,200.301 414.5,193.5 Z"/></g>
<g><path style="opacity:0.708" fill="#d1cde6" d="M 429.5,185.5 C 429.263,186.791 429.596,187.791 430.5,188.5C 430.5,190.833 430.5,193.167 430.5,195.5C 435.5,195.5 440.5,195.5 445.5,195.5C 445.5,199.167 445.5,202.833 445.5,206.5C 440.77,206.283 436.103,206.617 431.5,207.5C 431.158,206.662 430.492,206.328 429.5,206.5C 434.305,205.513 439.305,205.179 444.5,205.5C 444.5,202.5 444.5,199.5 444.5,196.5C 439.489,196.666 434.489,196.499 429.5,196C 428.18,192.399 428.18,188.899 429.5,185.5 Z"/></g>
<g><path style="opacity:0.145" fill="#5888b4" d="M 156.5,202.5 C 156.5,203.167 156.5,203.833 156.5,204.5C 155.434,210.174 156.434,215.507 159.5,220.5C 158.833,220.5 158.5,220.833 158.5,221.5C 155.945,219.924 153.945,217.757 152.5,215C 149.691,213.907 147.024,212.74 144.5,211.5C 147.807,212.051 151.14,212.384 154.5,212.5C 154.5,211.167 154.5,209.833 154.5,208.5C 152.833,207.167 151.167,207.167 149.5,208.5C 147.741,208.954 145.741,208.954 143.5,208.5C 143.5,209.5 143.5,210.5 143.5,211.5C 141.027,211.396 140.361,210.396 141.5,208.5C 146.192,205.743 151.192,203.743 156.5,202.5 Z"/></g>
<g><path style="opacity:0.773" fill="#4491bf" d="M 174.5,200.5 C 177.109,201.443 179.109,203.11 180.5,205.5C 179.127,205.343 177.793,205.51 176.5,206C 174.341,210.652 170.674,213.152 165.5,213.5C 167.38,214.714 167.713,216.048 166.5,217.5C 164.336,215.178 162.669,212.511 161.5,209.5C 162.833,209.5 163.5,208.833 163.5,207.5C 164.79,208.058 165.623,209.058 166,210.5C 166.494,208.866 166.66,207.199 166.5,205.5C 168.512,206.014 170.512,206.18 172.5,206C 171.039,203.418 171.706,201.585 174.5,200.5 Z"/></g>
<g><path style="opacity:0.337" fill="#219b82" d="M 129.5,193.5 C 130.376,193.369 131.043,193.702 131.5,194.5C 128.83,203.016 127.997,211.683 129,220.5C 128.722,219.584 128.222,218.918 127.5,218.5C 127.007,209.959 127.674,201.626 129.5,193.5 Z"/></g>
<g><path style="opacity:0.122" fill="#4d8f9b" d="M 132.5,198.5 C 132.214,206.12 132.214,213.786 132.5,221.5C 129.934,213.849 129.934,206.182 132.5,198.5 Z"/></g>
<g><path style="opacity:0.569" fill="#aeaac5" d="M 403.5,196.5 C 404.641,199.64 404.808,202.973 404,206.5C 403.303,208.584 402.136,210.251 400.5,211.5C 403.021,206.846 404.021,201.846 403.5,196.5 Z"/></g>
<g><path style="opacity:1" fill="#5ecbad" d="M 122.5,201.5 C 122.833,201.5 123.167,201.5 123.5,201.5C 123.5,205.833 123.5,210.167 123.5,214.5C 122.833,214.5 122.5,214.167 122.5,213.5C 121.209,209.399 121.209,205.399 122.5,201.5 Z"/></g>
<g><path style="opacity:1" fill="#24c9bc" d="M 195.5,209.5 C 195.167,209.5 194.833,209.5 194.5,209.5C 192.833,209.5 191.167,209.5 189.5,209.5C 189.219,205 190.886,204.167 194.5,207C 195.252,207.671 195.586,208.504 195.5,209.5 Z"/></g>
<g><path style="opacity:0.078" fill="#9f9cc0" d="M 364.5,211.5 C 363.069,210.22 362.402,208.553 362.5,206.5C 363.797,207.205 364.464,208.872 364.5,211.5 Z"/></g>
<g><path style="opacity:0.141" fill="#8f8ca8" d="M 483.5,207.5 C 482.833,208.5 482.167,209.5 481.5,210.5C 480.282,208.668 480.949,207.668 483.5,207.5 Z"/></g>
<g><path style="opacity:0.565" fill="#567db2" d="M 198.5,207.5 C 201.183,207.227 202.683,208.227 203,210.5C 198.935,212.115 195.102,214.115 191.5,216.5C 191.5,215.167 191.5,213.833 191.5,212.5C 192.167,212.5 192.833,212.5 193.5,212.5C 194.404,211.791 194.737,210.791 194.5,209.5C 194.833,209.5 195.167,209.5 195.5,209.5C 197.179,209.715 198.179,209.048 198.5,207.5 Z"/></g>
<g><path style="opacity:0.18" fill="#9789ad" d="M 273.5,208.5 C 274.906,208.973 275.573,209.973 275.5,211.5C 274.094,211.027 273.427,210.027 273.5,208.5 Z"/></g>
<g><path style="opacity:1" fill="#2cb5c4" d="M 149.5,208.5 C 151.167,208.5 152.833,208.5 154.5,208.5C 154.5,209.833 154.5,211.167 154.5,212.5C 151.14,212.384 147.807,212.051 144.5,211.5C 144.167,211.5 143.833,211.5 143.5,211.5C 143.5,210.5 143.5,209.5 143.5,208.5C 145.741,208.954 147.741,208.954 149.5,208.5 Z"/></g>
<g><path style="opacity:0.733" fill="#bdb4d4" d="M 253.5,206.5 C 252.921,209.331 251.588,211.664 249.5,213.5C 250.079,210.669 251.412,208.336 253.5,206.5 Z"/></g>
<g><path style="opacity:1" fill="#09d0c2" d="M 177.5,207.5 C 178.209,206.596 179.209,206.263 180.5,206.5C 181.172,209.644 182.172,212.644 183.5,215.5C 184.223,219.39 182.89,222.056 179.5,223.5C 178.508,223.672 177.842,223.338 177.5,222.5C 178.809,220.429 179.475,217.929 179.5,215C 179.475,212.071 178.809,209.571 177.5,207.5 Z"/></g>
<g><path style="opacity:0.031" fill="#ada9be" d="M 265.5,216.5 C 264.21,215.942 263.377,214.942 263,213.5C 262.617,214.056 262.117,214.389 261.5,214.5C 261.461,213.244 261.961,212.244 263,211.5C 264.883,212.653 265.716,214.319 265.5,216.5 Z"/></g>
<g><path style="opacity:0.541" fill="#3aa7b2" d="M 180.5,205.5 C 182.56,208.24 184.226,211.24 185.5,214.5C 185.557,215.609 185.89,216.609 186.5,217.5C 185.778,217.918 185.278,218.584 185,219.5C 184.79,217.942 184.29,216.609 183.5,215.5C 182.172,212.644 181.172,209.644 180.5,206.5C 179.209,206.263 178.209,206.596 177.5,207.5C 176.082,209.187 174.749,211.02 173.5,213C 171.942,213.21 170.609,213.71 169.5,214.5C 168.314,215.705 168.314,217.039 169.5,218.5C 168.209,218.737 167.209,218.404 166.5,217.5C 167.713,216.048 167.38,214.714 165.5,213.5C 170.674,213.152 174.341,210.652 176.5,206C 177.793,205.51 179.127,205.343 180.5,205.5 Z"/></g>
<g><path style="opacity:0.09" fill="#8988ae" d="M 467.5,210.5 C 466.833,215.833 466.167,221.167 465.5,226.5C 465.171,220.463 465.504,214.463 466.5,208.5C 467.298,208.957 467.631,209.624 467.5,210.5 Z"/></g>
<g><path style="opacity:0.482" fill="#aca3c7" d="M 249.5,213.5 C 249.25,215.674 248.25,217.341 246.5,218.5C 246.75,216.326 247.75,214.659 249.5,213.5 Z"/></g>
<g><path style="opacity:1" fill="#0ceaa4" d="M 169.5,214.5 C 172.278,214.022 174.278,215.022 175.5,217.5C 174.311,218.429 172.978,218.762 171.5,218.5C 170.833,218.5 170.167,218.5 169.5,218.5C 168.314,217.039 168.314,215.705 169.5,214.5 Z"/></g>
<g><path style="opacity:0.29" fill="#5c90ae" d="M 191.5,212.5 C 191.5,213.833 191.5,215.167 191.5,216.5C 190.527,216.987 189.527,217.487 188.5,218C 189.719,220.278 191.052,222.445 192.5,224.5C 192.167,224.5 191.833,224.5 191.5,224.5C 189.926,223.016 188.593,221.349 187.5,219.5C 187.672,218.508 187.338,217.842 186.5,217.5C 185.89,216.609 185.557,215.609 185.5,214.5C 186.815,213.524 188.148,212.524 189.5,211.5C 190.183,211.863 190.85,212.196 191.5,212.5 Z"/></g>
<g><path style="opacity:0.11" fill="#928fac" d="M 429.5,206.5 C 430.492,206.328 431.158,206.662 431.5,207.5C 430.527,209.948 430.194,212.615 430.5,215.5C 436.833,215.5 443.167,215.5 449.5,215.5C 443.021,216.491 436.354,216.824 429.5,216.5C 429.5,213.167 429.5,209.833 429.5,206.5 Z"/></g>
<g><path style="opacity:0.718" fill="#bcb8d0" d="M 399.5,212.5 C 396.531,215.481 392.864,217.148 388.5,217.5C 386.528,216.843 384.695,216.843 383,217.5C 382.487,216.473 381.987,215.473 381.5,214.5C 387.783,216.205 393.783,215.539 399.5,212.5 Z"/></g>
<g><path style="opacity:0.024" fill="#bbb9ca" d="M 367.5,216.5 C 370.167,218.5 372.5,220.833 374.5,223.5C 371.167,222.167 368.833,219.833 367.5,216.5 Z"/></g>
<g><path style="opacity:1" fill="#0adbb7" d="M 177.5,207.5 C 178.809,209.571 179.475,212.071 179.5,215C 179.475,217.929 178.809,220.429 177.5,222.5C 175.77,220.879 173.77,219.545 171.5,218.5C 172.978,218.762 174.311,218.429 175.5,217.5C 174.278,215.022 172.278,214.022 169.5,214.5C 170.609,213.71 171.942,213.21 173.5,213C 174.749,211.02 176.082,209.187 177.5,207.5 Z"/></g>
<g><path style="opacity:0.024" fill="#aba9bd" d="M 259.5,218.5 C 259.25,220.674 258.25,222.341 256.5,223.5C 256.75,221.326 257.75,219.659 259.5,218.5 Z"/></g>
<g><path style="opacity:0.024" fill="#adabb7" d="M 409.5,218.5 C 408.833,219.833 407.833,220.833 406.5,221.5C 406.062,221.565 405.728,221.399 405.5,221C 406.667,219.833 407.833,218.667 409,217.5C 409.399,217.728 409.565,218.062 409.5,218.5 Z"/></g>
<g><path style="opacity:1" fill="#45b5b0" d="M 169.5,218.5 C 170.167,218.5 170.833,218.5 171.5,218.5C 173.77,219.545 175.77,220.879 177.5,222.5C 176.833,222.5 176.167,222.5 175.5,222.5C 173.147,221.66 171.147,220.326 169.5,218.5 Z"/></g>
<g><path style="opacity:1" fill="#0cc3d0" d="M 183.5,215.5 C 184.29,216.609 184.79,217.942 185,219.5C 185.278,218.584 185.778,217.918 186.5,217.5C 187.338,217.842 187.672,218.508 187.5,219.5C 187.5,222.167 187.5,224.833 187.5,227.5C 186.5,227.5 185.5,227.5 184.5,227.5C 183.016,225.926 181.349,224.593 179.5,223.5C 182.89,222.056 184.223,219.39 183.5,215.5 Z"/></g>
<g><path style="opacity:0.173" fill="#4f9e99" d="M 122.5,213.5 C 122.5,214.167 122.833,214.5 123.5,214.5C 123.92,220.845 125.586,226.845 128.5,232.5C 129.11,233.391 129.443,234.391 129.5,235.5C 125.099,229.653 122.433,222.986 121.5,215.5C 121.543,214.584 121.876,213.917 122.5,213.5 Z"/></g>
<g><path style="opacity:1" fill="#15ef9a" d="M 134.5,183.5 C 134.443,184.609 134.11,185.609 133.5,186.5C 132.172,188.798 130.838,191.132 129.5,193.5C 127.674,201.626 127.007,209.959 127.5,218.5C 127.976,222.038 129.309,225.038 131.5,227.5C 131.5,228.5 131.5,229.5 131.5,230.5C 132.434,232.239 132.434,233.905 131.5,235.5C 130.859,234.007 129.859,233.007 128.5,232.5C 125.586,226.845 123.92,220.845 123.5,214.5C 123.5,210.167 123.5,205.833 123.5,201.5C 123.959,198.123 124.626,194.789 125.5,191.5C 128.137,189.518 129.47,186.852 129.5,183.5C 129.833,183.5 130.167,183.5 130.5,183.5C 131.735,183.279 132.735,182.612 133.5,181.5C 134.298,181.957 134.631,182.624 134.5,183.5 Z"/></g>
<g><path style="opacity:0.373" fill="#3685ce" d="M 204.5,178.5 C 205.833,179.167 206.833,180.167 207.5,181.5C 209.784,183.361 211.618,185.695 213,188.5C 219.28,203.702 218.78,218.702 211.5,233.5C 209.256,236.752 206.589,239.752 203.5,242.5C 203.158,243.338 202.492,243.672 201.5,243.5C 204.495,238.452 203.995,237.785 200,241.5C 199.601,241.272 199.435,240.938 199.5,240.5C 215.365,224.324 217.865,206.657 207,187.5C 204.566,184.916 202.4,182.249 200.5,179.5C 202.195,180.826 203.528,180.493 204.5,178.5 Z"/></g>
<g><path style="opacity:0.537" fill="#5194a9" d="M 159.5,220.5 C 162.144,222.628 165.144,224.128 168.5,225C 169.823,225.816 170.489,226.983 170.5,228.5C 170.167,228.5 169.833,228.5 169.5,228.5C 168.003,227.694 166.336,227.028 164.5,226.5C 163.893,226.624 163.56,226.957 163.5,227.5C 162.167,227.5 160.833,227.5 159.5,227.5C 163.76,224.842 163.427,223.676 158.5,224C 156.833,225.667 155.167,227.333 153.5,229C 154.448,229.483 155.448,229.649 156.5,229.5C 155.063,230.725 153.396,231.725 151.5,232.5C 151.167,232 150.833,231.5 150.5,231C 152.988,227.679 155.655,224.512 158.5,221.5C 159.167,221.5 159.5,221.167 159.5,220.5 Z"/></g>
<g><path style="opacity:0.306" fill="#5390ae" d="M 175.5,222.5 C 176.167,222.5 176.833,222.5 177.5,222.5C 177.842,223.338 178.508,223.672 179.5,223.5C 181.349,224.593 183.016,225.926 184.5,227.5C 183.167,227.167 181.833,226.833 180.5,226.5C 180.158,225.662 179.492,225.328 178.5,225.5C 177.306,224.728 176.306,223.728 175.5,222.5 Z"/></g>
<g><path style="opacity:0.29" fill="#b8b3cf" d="M 269.5,223.5 C 270.478,223.811 271.145,224.478 271.5,225.5C 273.333,225.833 275.167,226.167 277,226.5C 279.295,226.453 281.129,225.787 282.5,224.5C 283.404,225.209 283.737,226.209 283.5,227.5C 279.815,227.895 276.148,228.062 272.5,228C 270.624,227.082 269.624,225.582 269.5,223.5 Z"/></g>
<g><path style="opacity:1" fill="#2fcbb8" d="M 159.5,227.5 C 159.027,228.906 158.027,229.573 156.5,229.5C 155.448,229.649 154.448,229.483 153.5,229C 155.167,227.333 156.833,225.667 158.5,224C 163.427,223.676 163.76,224.842 159.5,227.5 Z"/></g>
<g><path style="opacity:0.42" fill="#b6b2cf" d="M 243.5,224.5 C 246.684,226.414 250.351,227.08 254.5,226.5C 253.739,227.391 252.739,228.058 251.5,228.5C 250.167,227.167 248.833,227.167 247.5,228.5C 245.465,227.959 243.465,227.292 241.5,226.5C 241.855,225.478 242.522,224.811 243.5,224.5 Z"/></g>
<g><path style="opacity:0.42" fill="#bab4cc" d="M 288.5,203.5 C 288.5,211.167 288.5,218.833 288.5,226.5C 291.5,226.5 294.5,226.5 297.5,226.5C 297.195,221.238 297.529,216.072 298.5,211C 303.866,210.677 309.199,210.177 314.5,209.5C 313.158,210.793 311.491,211.626 309.5,212C 306.183,212.498 302.85,212.665 299.5,212.5C 299.321,217.151 299.321,221.651 299.5,226C 298.421,226.956 297.255,227.789 296,228.5C 294,227.167 292,227.167 290,228.5C 288.603,227.774 287.769,226.607 287.5,225C 286.655,220.539 286.322,216.039 286.5,211.5C 287.167,208.833 287.833,206.167 288.5,203.5 Z"/></g>
<g><path style="opacity:0.4" fill="#ada8c4" d="M 359.5,216.5 C 360.267,217.172 360.934,218.005 361.5,219C 360.556,221.719 360.223,224.552 360.5,227.5C 350.917,227.182 341.417,227.515 332,228.5C 330.698,227.915 329.531,227.249 328.5,226.5C 328.833,226.5 329.167,226.5 329.5,226.5C 339.5,226.5 349.5,226.5 359.5,226.5C 359.5,223.167 359.5,219.833 359.5,216.5 Z"/></g>
<g><path style="opacity:0.859" fill="#bcb8d1" d="M 374.5,223.5 C 382.6,226.61 390.934,227.277 399.5,225.5C 390.757,229.865 382.424,229.199 374.5,223.5 Z"/></g>
<g><path style="opacity:0.395" fill="#bfbad8" d="M 450.5,175.5 C 450.167,175.5 449.833,175.5 449.5,175.5C 439.5,175.5 429.5,175.5 419.5,175.5C 419.5,192.5 419.5,209.5 419.5,226.5C 429.5,226.5 439.5,226.5 449.5,226.5C 449.5,223.5 449.5,220.5 449.5,217.5C 442.646,217.824 435.979,217.491 429.5,216.5C 436.354,216.824 443.021,216.491 449.5,215.5C 450.198,218.897 450.865,222.397 451.5,226C 451.167,226.333 450.833,226.667 450.5,227C 441.256,227.181 432.089,227.681 423,228.5C 421.644,227.62 420.144,227.286 418.5,227.5C 418.5,209.833 418.5,192.167 418.5,174.5C 429.346,174.172 440.013,174.506 450.5,175.5 Z"/></g>
<g><path style="opacity:0.439" fill="#bab6cd" d="M 489.5,223.5 C 491.505,224.254 492.172,225.421 491.5,227C 487.259,228.457 482.926,228.791 478.5,228C 477.695,226.887 477.028,225.721 476.5,224.5C 480.942,226.403 485.609,226.903 490.5,226C 489.748,225.329 489.414,224.496 489.5,223.5 Z"/></g>
<g><path style="opacity:1" fill="#27aad7" d="M 187.5,219.5 C 188.593,221.349 189.926,223.016 191.5,224.5C 191.247,226.827 191.914,228.827 193.5,230.5C 192.757,231.182 192.091,231.849 191.5,232.5C 188.953,231.066 186.619,229.4 184.5,227.5C 185.5,227.5 186.5,227.5 187.5,227.5C 187.5,224.833 187.5,222.167 187.5,219.5 Z"/></g>
<g><path style="opacity:0.982" fill="#429ad0" d="M 178.5,225.5 C 179.492,225.328 180.158,225.662 180.5,226.5C 177.598,228.051 175.931,230.385 175.5,233.5C 174.069,233.881 173.236,234.881 173,236.5C 172.814,233.964 172.314,231.631 171.5,229.5C 170.833,229.5 170.5,229.167 170.5,228.5C 172.347,225.829 175.014,224.829 178.5,225.5 Z"/></g>
<g><path style="opacity:0.967" fill="#438ecc" d="M 191.5,224.5 C 191.833,224.5 192.167,224.5 192.5,224.5C 194.034,227.735 195.701,230.901 197.5,234C 197.333,234.5 197.167,235 197,235.5C 195.22,234.361 193.386,233.361 191.5,232.5C 192.091,231.849 192.757,231.182 193.5,230.5C 191.914,228.827 191.247,226.827 191.5,224.5 Z"/></g>
<g><path style="opacity:0.369" fill="#5381b4" d="M 163.5,227.5 C 163.56,226.957 163.893,226.624 164.5,226.5C 166.336,227.028 168.003,227.694 169.5,228.5C 170.088,234.146 170.754,234.479 171.5,229.5C 172.314,231.631 172.814,233.964 173,236.5C 173.236,234.881 174.069,233.881 175.5,233.5C 174.897,236.308 173.897,238.974 172.5,241.5C 170.172,238.178 168.339,234.511 167,230.5C 165.961,229.29 164.794,228.29 163.5,227.5 Z"/></g>
<g><path style="opacity:0.89" fill="#5aa9a5" d="M 129.5,236.5 C 131.531,237.539 132.864,239.205 133.5,241.5C 131.457,240.421 130.124,238.754 129.5,236.5 Z"/></g>
<g><path style="opacity:0.212" fill="#5f94a4" d="M 139.5,234.5 C 143.5,238.167 147.5,241.833 151.5,245.5C 146.223,243.223 142.223,239.556 139.5,234.5 Z"/></g>
<g><path style="opacity:0.345" fill="#30aa9a" d="M 133.5,223.5 C 135.488,227.091 137.488,230.758 139.5,234.5C 142.223,239.556 146.223,243.223 151.5,245.5C 152.79,246.935 154.456,247.935 156.5,248.5C 155.624,249.251 154.624,249.751 153.5,250C 154.056,250.383 154.389,250.883 154.5,251.5C 154.167,251.5 153.833,251.5 153.5,251.5C 151.5,250.167 149.5,248.833 147.5,247.5C 140.757,243.093 135.424,237.426 131.5,230.5C 131.5,229.5 131.5,228.5 131.5,227.5C 133.176,226.817 133.843,225.483 133.5,223.5 Z"/></g>
<g><path style="opacity:1" fill="#279fe0" d="M 211.5,233.5 C 212.9,234.1 213.9,235.1 214.5,236.5C 212.628,241.043 209.628,244.71 205.5,247.5C 205.923,245.219 205.256,243.552 203.5,242.5C 206.589,239.752 209.256,236.752 211.5,233.5 Z"/></g>
<g><path style="opacity:0.024" fill="#46a5a1" d="M 133.5,241.5 C 135.452,242.785 137.118,244.451 138.5,246.5C 135.856,245.856 134.189,244.189 133.5,241.5 Z"/></g>
<g><path style="opacity:1" fill="#16e7a5" d="M 131.5,230.5 C 135.424,237.426 140.757,243.093 147.5,247.5C 146.817,249.176 145.483,249.843 143.5,249.5C 142.078,248.075 140.411,247.075 138.5,246.5C 137.118,244.451 135.452,242.785 133.5,241.5C 132.864,239.205 131.531,237.539 129.5,236.5C 129.5,236.167 129.5,235.833 129.5,235.5C 129.443,234.391 129.11,233.391 128.5,232.5C 129.859,233.007 130.859,234.007 131.5,235.5C 132.434,233.905 132.434,232.239 131.5,230.5 Z"/></g>
<g><path style="opacity:1" fill="#12aee0" d="M 203.5,242.5 C 205.256,243.552 205.923,245.219 205.5,247.5C 202.167,249.167 198.833,250.833 195.5,252.5C 195.179,250.952 194.179,250.285 192.5,250.5C 195.985,248.692 198.985,246.359 201.5,243.5C 202.492,243.672 203.158,243.338 203.5,242.5 Z"/></g>
<g><path style="opacity:0.302" fill="#3f8ebe" d="M 201.5,243.5 C 198.985,246.359 195.985,248.692 192.5,250.5C 188.423,252.524 184.09,253.524 179.5,253.5C 179.611,252.883 179.944,252.383 180.5,252C 174.5,251.667 168.5,251.333 162.5,251C 160.685,250.243 159.019,249.41 157.5,248.5C 170.701,252.435 183.368,250.935 195.5,244C 196.705,242.624 198.038,241.458 199.5,240.5C 199.435,240.938 199.601,241.272 200,241.5C 203.995,237.785 204.495,238.452 201.5,243.5 Z"/></g>
<g><path style="opacity:0.38" fill="#5190bc" d="M 205.5,247.5 C 194.755,256.972 182.088,261.305 167.5,260.5C 174.901,259.98 182.235,258.48 189.5,256C 191.879,255.284 193.879,254.117 195.5,252.5C 198.833,250.833 202.167,249.167 205.5,247.5 Z"/></g>
<g><path style="opacity:0.482" fill="#479a9a" d="M 138.5,246.5 C 140.411,247.075 142.078,248.075 143.5,249.5C 143.833,250.167 144.167,250.833 144.5,251.5C 141.911,250.581 139.911,248.914 138.5,246.5 Z"/></g>
<g><path style="opacity:1" fill="#30a8b5" d="M 151.5,245.5 C 154.216,245.386 156.216,246.386 157.5,248.5C 159.019,249.41 160.685,250.243 162.5,251C 168.5,251.333 174.5,251.667 180.5,252C 179.944,252.383 179.611,252.883 179.5,253.5C 179.082,254.222 178.416,254.722 177.5,255C 174.183,255.498 170.85,255.665 167.5,255.5C 163.031,254.412 158.698,253.079 154.5,251.5C 154.389,250.883 154.056,250.383 153.5,250C 154.624,249.751 155.624,249.251 156.5,248.5C 154.456,247.935 152.79,246.935 151.5,245.5 Z"/></g>
<g><path style="opacity:1" fill="#10dcb3" d="M 147.5,247.5 C 149.5,248.833 151.5,250.167 153.5,251.5C 154.429,252.315 155.429,253.148 156.5,254C 155.667,254.167 154.833,254.333 154,254.5C 150.964,253.017 147.797,252.017 144.5,251.5C 144.167,250.833 143.833,250.167 143.5,249.5C 145.483,249.843 146.817,249.176 147.5,247.5 Z"/></g>
<g><path style="opacity:1" fill="#1bcebc" d="M 144.5,251.5 C 147.797,252.017 150.964,253.017 154,254.5C 154.833,254.333 155.667,254.167 156.5,254C 155.429,253.148 154.429,252.315 153.5,251.5C 153.833,251.5 154.167,251.5 154.5,251.5C 158.698,253.079 163.031,254.412 167.5,255.5C 170.689,256.166 174.023,256.833 177.5,257.5C 168.748,258.378 160.082,257.711 151.5,255.5C 148.669,254.921 146.336,253.588 144.5,251.5 Z"/></g>
<g><path style="opacity:1" fill="#2bb9c5" d="M 192.5,250.5 C 194.179,250.285 195.179,250.952 195.5,252.5C 193.879,254.117 191.879,255.284 189.5,256C 182.235,258.48 174.901,259.98 167.5,260.5C 161.775,259.742 156.441,258.075 151.5,255.5C 160.082,257.711 168.748,258.378 177.5,257.5C 174.023,256.833 170.689,256.166 167.5,255.5C 170.85,255.665 174.183,255.498 177.5,255C 178.416,254.722 179.082,254.222 179.5,253.5C 184.09,253.524 188.423,252.524 192.5,250.5 Z"/></g>
</svg>
